<svg width="2134" height="1600" viewBox="0 0 2134 1600" fill="none" xmlns="http://www.w3.org/2000/svg">
<path d="M2031.3 781.424C2070.69 775.398 2042.7 749.606 2025.5 741.158C2008.3 732.7 1896.11 674.257 1847.04 661.018C1815.13 652.408 1777.29 644.351 1748.64 641.216C1741.09 616.372 1728.2 601.466 1699.34 584.606C1669.6 567.231 1650.09 566.882 1631.96 557.507C1613.81 548.143 1602.77 527.174 1580.54 535.903C1552.15 547.054 1530.73 598.601 1524.68 607.106C1507.93 630.632 1504.18 648.143 1498.84 692.044C1498.35 696.012 1498.61 700.325 1499.41 704.762C1459.23 674.252 1440.46 649.132 1427.94 611.398C1420.42 588.721 1390.23 580.137 1379.56 603.236C1365.73 633.106 1399.08 694.57 1414.09 723.585C1389.42 708.528 1355.37 685.361 1348.77 676.58C1334.42 657.476 1296.79 663.247 1296.43 688.69C1296.07 714.143 1336.81 774.195 1361.27 792.429C1367.82 797.33 1377.28 802.658 1388.35 807.893C1327.2 870.085 1294.52 934.674 1288.53 997.903C1271.68 997.762 1256.53 1000.33 1246.26 1004.65C1207.3 1021.07 1177.17 1087.68 1148.46 1077.48C1137.82 1073.71 1115.41 1031.4 1101.61 1008.96C1087.8 986.512 1031.44 1000.13 1047.84 1022.49C1064.23 1044.83 1105.21 1086.27 1127.31 1122.17C1149.39 1158.1 1155.1 1171.66 1175.28 1157.12C1195.47 1142.57 1221.28 1070.93 1268.47 1121.01C1274.71 1127.63 1268.55 1121.31 1274.67 1126.15C1273.57 1172.63 1314.06 1237.69 1364.96 1256.25C1410.11 1272.72 1492.08 1278.18 1510.42 1307.52C1517.21 1318.39 1510.6 1375.85 1507.8 1403.1C1504.99 1430.35 1563.27 1462.71 1563.74 1433.57C1564.22 1404.43 1555.84 1342.43 1560.32 1298.82C1564.69 1256.31 1561.22 1253.77 1536.17 1249.02C1540.42 1245.73 1551.68 1230.01 1555.16 1226.37C1570.5 1237.01 1594.41 1244.09 1626.69 1241.8C1676.33 1238.29 1657.75 1172.93 1640.2 1156.73C1626.08 1143.69 1589.92 1141.5 1567.97 1135.54C1560.6 1095.96 1557.09 1047.63 1561.69 1020.07C1571.73 959.908 1628.41 860.554 1649.7 808.622C1680.15 800.841 1723.54 793.471 1741.77 754.591C1745.49 746.653 1748.81 738.908 1751.6 731.346C1792.37 767.002 1827.29 811.736 1870.1 844.518C1924.94 886.523 1948.68 887.825 1988.39 892.742C2028.08 897.669 2019.99 870.554 2005.75 857.721C1995.78 848.731 1953.98 808.752 1917.04 773.648C1967.18 790.132 1996.72 786.716 2031.3 781.424Z" fill="white"/>
<path d="M2031.3 781.424C2070.69 775.398 2042.7 749.606 2025.5 741.158C2008.3 732.7 1896.11 674.257 1847.04 661.018C1815.13 652.408 1777.29 644.351 1748.64 641.215C1741.09 616.372 1728.2 601.465 1699.34 584.606C1669.6 567.231 1650.09 566.882 1631.96 557.507C1613.81 548.143 1602.77 527.174 1580.54 535.903C1552.15 547.054 1530.73 598.601 1524.68 607.106C1507.93 630.632 1504.18 648.143 1498.84 692.044C1498.35 696.012 1498.61 700.325 1499.41 704.762C1459.23 674.252 1440.46 649.132 1427.94 611.398C1420.42 588.721 1390.23 580.137 1379.56 603.236C1365.73 633.106 1399.08 694.57 1414.09 723.585C1389.42 708.528 1355.37 685.361 1348.77 676.58C1334.42 657.476 1296.79 663.247 1296.43 688.689C1296.07 714.143 1336.81 774.195 1361.27 792.429C1367.82 797.33 1377.28 802.658 1388.35 807.893C1327.2 870.085 1294.52 934.674 1288.53 997.903C1271.68 997.762 1256.53 1000.33 1246.26 1004.65C1207.3 1021.07 1177.17 1087.68 1148.46 1077.48C1137.82 1073.71 1115.41 1031.4 1101.61 1008.96C1087.8 986.512 1031.44 1000.13 1047.84 1022.49C1064.23 1044.83 1105.21 1086.27 1127.31 1122.17C1149.39 1158.1 1155.1 1171.66 1175.28 1157.12C1195.47 1142.57 1221.28 1070.93 1268.47 1121.01C1274.71 1127.63 1268.55 1121.31 1274.67 1126.15C1273.57 1172.63 1314.06 1237.69 1364.96 1256.25C1410.11 1272.72 1492.08 1278.18 1510.42 1307.52C1517.21 1318.39 1510.6 1375.85 1507.8 1403.1C1504.99 1430.35 1563.27 1462.71 1563.74 1433.57C1564.22 1404.43 1555.84 1342.43 1560.32 1298.82C1564.69 1256.31 1561.22 1253.77 1536.17 1249.02C1540.42 1245.73 1551.68 1230.01 1555.16 1226.37C1570.5 1237.01 1594.41 1244.09 1626.69 1241.8C1676.33 1238.29 1657.75 1172.93 1640.2 1156.73C1626.08 1143.69 1589.92 1141.5 1567.97 1135.54C1560.6 1095.96 1557.09 1047.63 1561.69 1020.07C1571.73 959.908 1628.41 860.554 1649.7 808.622C1680.15 800.84 1723.54 793.471 1741.77 754.59C1745.49 746.653 1748.81 738.908 1751.6 731.346C1792.37 767.002 1827.29 811.736 1870.1 844.518C1924.94 886.523 1948.68 887.825 1988.39 892.741C2028.08 897.669 2019.99 870.554 2005.75 857.721C1995.78 848.731 1953.98 808.752 1917.04 773.648C1967.18 790.132 1996.72 786.715 2031.3 781.424Z" stroke="#929496" stroke-width="11.736" stroke-linecap="round" stroke-linejoin="round"/>
<path d="M1731.46 676.027C1760.62 680.095 1837.87 699.267 1875.05 733.985C1912.22 768.699 1991.5 844.876 2005.75 857.72C2019.99 870.553 2028.08 897.668 1988.39 892.741C1948.68 887.824 1924.94 886.527 1870.1 844.517C1815.25 802.517 1773.39 740.813 1715.53 703.85" fill="white"/>
<path d="M1372.87 1026.57C1336.54 993.929 1273.83 993.038 1246.26 1004.65C1207.3 1021.07 1185.89 1087.52 1157.17 1077.31C1146.53 1073.54 1135.06 1029.05 1108.76 1002.96C1086.04 980.419 1031.44 1000.13 1047.84 1022.49C1064.23 1044.83 1105.21 1086.27 1127.31 1122.17C1149.39 1158.1 1155.1 1171.66 1175.28 1157.12C1195.47 1142.57 1221.28 1070.93 1268.47 1121.01C1296.57 1150.82 1322.24 1163.02 1357.82 1153.81" fill="white"/>
<path d="M1681.02 642.679C1676.15 649.101 1653.73 650.132 1645.41 640.424C1637.06 630.71 1635.82 615.731 1644.98 610.273C1652.13 606.002 1665.27 605.596 1675.57 613.179C1684.85 620.007 1687.49 634.189 1681.02 642.679Z" fill="#929496"/>
<path d="M1594.21 564.565C1585.13 564.565 1577.06 560.195 1573.29 553.08C1569.77 546.419 1570.73 538.83 1575.94 532.257C1577.96 529.721 1581.64 529.294 1584.18 531.304C1586.72 533.315 1587.15 537.007 1585.13 539.549C1582.86 542.424 1582.35 545.127 1583.66 547.585C1585.49 551.023 1590.34 553.169 1595.45 552.783C1598.69 552.565 1601.49 554.971 1601.73 558.205C1601.97 561.434 1599.54 564.247 1596.32 564.486C1595.61 564.538 1594.9 564.565 1594.21 564.565Z" fill="#929496"/>
<path d="M1583.77 623.747C1583.56 623.747 1583.33 623.736 1583.09 623.705C1552.77 620.19 1537.28 605.575 1535.72 579.023C1535.53 575.788 1537.99 573.012 1541.23 572.825C1544.48 572.632 1547.25 575.106 1547.44 578.341C1548.23 592.132 1553.17 608.424 1584.45 612.049C1587.66 612.424 1589.97 615.335 1589.6 618.554C1589.25 621.544 1586.72 623.747 1583.77 623.747Z" fill="#929496"/>
<path d="M986.741 1291.88L1015.92 1391.01C1014.81 1434.26 932.898 1469.34 830.486 1469.34C728.075 1469.34 645.054 1434.27 645.059 1391.01L674.231 1294.78L645.059 1097.49C645.059 1061.79 728.075 1032.04 830.486 1032.04C932.898 1032.04 1016.91 1058.81 1015.92 1097.49" fill="#DBA100"/>
<path d="M986.741 1291.88L1015.92 1391.01C1014.81 1434.26 932.898 1469.34 830.486 1469.34C728.075 1469.34 645.054 1434.27 645.059 1391.01L674.231 1294.78L645.059 1097.49C645.059 1061.79 728.075 1032.04 830.486 1032.04C932.898 1032.04 1016.91 1058.81 1015.92 1097.49L986.741 1291.88Z" stroke="#6C6E70" stroke-width="11.736" stroke-linecap="round" stroke-linejoin="round"/>
<path d="M830.483 1046.1C741.145 1046.1 668.723 1068.63 668.723 1095.67C668.723 1128.43 741.145 1155 830.483 1155C919.827 1155 991.28 1128.42 992.254 1095.67C993.118 1066.37 919.827 1046.1 830.483 1046.1Z" fill="#DBA100"/>
<path d="M830.483 1046.1C741.145 1046.1 668.723 1068.63 668.723 1095.67C668.723 1128.43 741.145 1155 830.483 1155C919.827 1155 991.28 1128.42 992.254 1095.67C993.118 1066.37 919.827 1046.1 830.483 1046.1Z" stroke="#6C6E70" stroke-width="11.736" stroke-linecap="round" stroke-linejoin="round"/>
<path d="M1539.85 444.079C1461.28 399.324 1366.7 303.537 1366.7 303.537C1350.66 291.298 1355.78 257.621 1378.13 228.345C1400.48 199.048 1431.61 185.225 1447.65 197.465C1447.65 197.465 1591.81 287.053 1639.18 319.09C1683.33 348.959 1705.8 380.595 1705.8 380.595C1718.98 399.272 1716.72 426.506 1694.37 455.798C1672.01 485.095 1640.89 498.918 1624.85 486.678C1624.85 486.678 1618.44 488.845 1539.85 444.079Z" fill="#DBA100"/>
<path d="M1539.85 444.079C1461.28 399.324 1366.7 303.537 1366.7 303.537C1350.66 291.298 1355.78 257.621 1378.13 228.345C1400.48 199.048 1431.61 185.225 1447.65 197.465C1447.65 197.465 1591.81 287.053 1639.18 319.09C1683.33 348.959 1705.8 380.595 1705.8 380.595C1718.98 399.272 1716.72 426.506 1694.37 455.798C1672.01 485.095 1640.89 498.918 1624.85 486.678C1624.85 486.678 1618.44 488.845 1539.85 444.079Z" stroke="#6C6E70" stroke-width="11.736" stroke-linecap="round" stroke-linejoin="round"/>
<path d="M1436.22 272.658C1413.87 301.95 1382.75 315.783 1366.7 303.544C1350.66 291.299 1355.78 257.622 1378.13 228.346C1400.48 199.049 1431.61 185.21 1447.65 197.466C1463.69 209.689 1458.57 243.372 1436.22 272.658Z" fill="#E8CC87"/>
<path d="M1436.22 272.658C1413.87 301.95 1382.75 315.783 1366.7 303.544C1350.66 291.299 1355.78 257.622 1378.13 228.346C1400.48 199.049 1431.61 185.21 1447.65 197.466C1463.69 209.689 1458.57 243.372 1436.22 272.658Z" stroke="#6C6E70" stroke-width="11.736" stroke-linecap="round" stroke-linejoin="round"/>
<path d="M1591.09 432.501C1602.16 441.886 1605.61 456.001 1598.81 464.001L1367.53 734.84C1360.73 742.84 1346.27 741.709 1335.2 732.303C1324.15 722.912 1320.69 708.808 1327.49 700.803L1558.75 429.975C1565.56 421.97 1580.04 423.105 1591.09 432.501Z" fill="#DBA100"/>
<path d="M1591.09 432.501C1602.16 441.886 1605.61 456.001 1598.81 464.001L1367.53 734.84C1360.73 742.84 1346.27 741.709 1335.2 732.303C1324.15 722.912 1320.69 708.808 1327.49 700.803L1558.75 429.975C1565.56 421.97 1580.04 423.105 1591.09 432.501Z" stroke="#6C6E70" stroke-width="11.736" stroke-linecap="round" stroke-linejoin="round"/>
<path d="M1417.34 218.662C1392.81 210.491 1360.82 226.424 1338.99 238.252C1318.98 249.091 1256.9 294.518 1236.89 321.601C1218.4 346.637 1234.64 342.386 1248.14 330.355C1263.28 316.855 1285.65 298.679 1298.16 299.174C1320.72 300.075 1266.74 347.787 1248.01 369.386C1215.41 407.006 1085.6 566.252 1050.79 627.747C975.555 760.643 898.008 900.804 880.456 950.96C878.545 956.413 877.31 961.387 876.581 965.945C870.414 982.721 863.821 1001.57 859.987 1008.19C848.222 1028.49 840.508 1046.67 821.534 1061.54C807.862 1072.26 786.904 1066.85 770.711 1070.66C750.831 1075.35 728.769 1080.01 711.737 1092.73C696.117 1104.4 696.133 1125.07 712.43 1134.2C733.222 1145.85 752.805 1162.01 773.961 1173.84L903.867 1168.88C919.821 1163.59 943.477 1167.29 957.222 1154.01C970.045 1141.62 960.498 1121.37 949.68 1111.31C939.065 1101.46 929.43 1092.77 916.315 1085.61C897.857 1075.52 895.102 1067.48 895.935 1045.92C896.8 1023.49 909.81 1002.43 910.706 980.768C948.133 871.518 1014.03 742.346 1038.34 693.893C1084.07 602.773 1242.22 398.475 1280.61 369.386C1324.45 336.178 1366.89 323.438 1388.44 316.73C1410.27 309.933 1434.23 288.32 1441.93 261.169C1449.85 233.252 1432.35 223.662 1417.34 218.662Z" fill="white"/>
<path d="M1417.34 218.662C1392.81 210.491 1360.82 226.424 1338.99 238.252C1318.98 249.091 1256.9 294.518 1236.89 321.601C1218.4 346.637 1234.64 342.386 1248.14 330.355C1263.28 316.855 1285.65 298.679 1298.16 299.174C1320.72 300.075 1266.74 347.787 1248.01 369.386C1215.41 407.006 1085.6 566.252 1050.79 627.747C975.555 760.643 898.008 900.804 880.456 950.96C878.545 956.413 877.31 961.387 876.581 965.945C870.414 982.721 863.821 1001.57 859.987 1008.19C848.222 1028.49 840.508 1046.67 821.534 1061.54C807.862 1072.26 786.904 1066.85 770.711 1070.66C750.831 1075.35 728.769 1080.01 711.737 1092.73C696.117 1104.4 696.133 1125.07 712.43 1134.2C733.222 1145.85 752.805 1162.01 773.961 1173.84L903.868 1168.88C919.821 1163.59 943.477 1167.29 957.222 1154.01C970.045 1141.62 960.498 1121.37 949.68 1111.31C939.065 1101.46 929.43 1092.77 916.315 1085.61C897.857 1075.52 895.102 1067.48 895.935 1045.92C896.8 1023.49 909.81 1002.43 910.706 980.768C948.133 871.518 1014.03 742.346 1038.34 693.893C1084.07 602.773 1242.22 398.475 1280.61 369.386C1324.45 336.178 1366.89 323.438 1388.44 316.73C1410.27 309.933 1434.23 288.32 1441.93 261.169C1449.85 233.252 1432.35 223.662 1417.34 218.662Z" stroke="#D0D2D3" stroke-width="7.39467" stroke-linecap="round" stroke-linejoin="round"/>
<path d="M668.726 1095.67C668.726 1128.43 741.148 1155 830.486 1155C919.83 1155 991.283 1128.42 992.257 1095.67L1015.92 1097.49C1014.81 1140.74 932.898 1175.82 830.486 1175.82C728.075 1175.82 645.054 1140.75 645.059 1097.49" fill="#DBA100"/>
<path d="M830.483 1180.54C780.337 1180.54 733.118 1172.26 697.525 1157.23C660.65 1141.64 640.332 1120.43 640.332 1097.49C640.332 1094.88 642.447 1092.77 645.056 1092.77C647.66 1092.77 649.77 1094.88 649.77 1097.49C649.764 1116.12 668.514 1134.73 701.197 1148.53C735.65 1163.09 781.566 1171.11 830.483 1171.11C929.087 1171.11 1010.16 1138.03 1011.2 1097.36C1011.27 1094.75 1013.57 1092.64 1016.04 1092.77C1018.65 1092.84 1020.7 1095 1020.64 1097.61C1019.44 1144.12 935.915 1180.54 830.483 1180.54Z" fill="#6C6E70"/>
<path d="M830.483 1159.72C786.728 1159.72 745.54 1153.44 714.478 1142.05C681.926 1130.11 664.004 1113.64 664.004 1095.67C664.004 1093.06 666.118 1090.95 668.723 1090.95C671.327 1090.95 673.441 1093.06 673.441 1095.67C673.436 1109.19 689.577 1122.87 717.723 1133.19C747.77 1144.22 787.816 1150.28 830.483 1150.28C923.457 1150.28 986.754 1121.97 987.535 1095.52C987.608 1092.92 989.775 1090.91 992.395 1090.95C994.993 1091.02 997.046 1093.19 996.967 1095.8C995.91 1131.65 922.78 1159.72 830.483 1159.72Z" fill="#6C6E70"/>
<path d="M1512.4 757.038C1425.84 745.419 1363.11 695.679 1348.77 676.58C1334.42 657.476 1296.79 663.247 1296.43 688.69C1296.07 714.148 1336.81 774.195 1361.25 792.429C1385.69 810.663 1449.93 834.815 1491.02 838.596" fill="white"/>
<path d="M519.34 1052.12C592.793 1055.99 648.84 1093.47 662.184 1108.53C675.528 1123.59 706.736 1116.18 705.293 1094.8C703.866 1073.4 665.575 1025.77 643.814 1012.13C622.059 998.475 566.481 982.574 531.731 982.199" fill="white"/>
<path d="M519.34 1052.12C592.793 1055.99 648.84 1093.47 662.184 1108.53C675.528 1123.59 706.736 1116.18 705.293 1094.8C703.866 1073.4 665.575 1025.77 643.814 1012.13C622.059 998.475 566.481 982.574 531.731 982.199L519.34 1052.12Z" stroke="#929496" stroke-width="9.884" stroke-linecap="round" stroke-linejoin="round"/>
<path d="M665.396 1052.92C648.297 1047.3 597.755 1055.25 580.343 1056.66C564.521 1057.93 554.651 1025.5 542.619 1005.27C545.036 1001.29 547.312 997.497 549.453 993.887C590.052 1022.53 677.927 1010.79 706.411 982.955C722.651 967.096 715.708 950.038 710.896 931.778C706.083 913.518 713.224 858.325 692.255 812.096C677.849 780.315 652.255 763.69 618.385 760.19C609.047 728.57 587.875 671.726 558.76 646.221C524.807 616.481 449.859 559.351 437.255 547.908C424.656 536.466 388.135 525.153 396.031 559.627C402.531 588.023 400.432 621.929 422.922 657.955C389.661 644.127 358.052 631.32 349.453 627.059C334.208 619.481 295.984 618.679 313.01 649.846C330.041 681.007 337.083 723.559 389.666 755.117C419.364 772.945 461.63 788.596 497.062 799.986C490.484 804.887 484.599 809.533 479.734 813.382C470.505 820.705 467.182 838.46 469.937 860.747C430.146 884.846 382.244 926.591 335.536 940.346C244.781 967.059 192.338 1004.28 165.77 1036.97C140.864 1020.56 96.083 1007.62 89.2861 1027.55C80.5153 1053.3 78.359 1093.51 99.9163 1102.34C113.588 1107.94 126.198 1110.22 136.875 1110.86C136.875 1113.89 137.057 1116.89 137.39 1119.85C116.317 1188.31 250.161 1278.05 253.192 1288.53C256.442 1299.72 213.875 1337.08 204.166 1349.6C194.453 1362.11 190.39 1395.85 227.338 1393.64C243.984 1392.63 364.057 1403.28 375.672 1389C387.312 1374.72 370.203 1355.92 350.182 1349.6C335.635 1345.01 299.854 1343.81 279.276 1345.88C305.38 1329.82 352.01 1295.37 356.797 1284.35C356.953 1283.99 357.073 1283.61 357.224 1283.25C392.286 1290.28 420.213 1292.85 422.619 1297.39C428.078 1307.68 403.494 1337.68 396.536 1351.91C389.578 1366.15 394.218 1377.41 428.984 1382.05C445.51 1384.25 573.489 1396.08 581.953 1379.73C590.437 1363.37 569.698 1331.31 548.812 1329.2C527.906 1327.09 482.396 1335.57 477.557 1328.92C472.708 1322.26 507.39 1268.29 504.354 1250.12C501.323 1231.96 483.442 1203.2 468.005 1188.98C460.224 1181.81 443.468 1168.9 422.77 1157.66C437.515 1146.03 450.817 1133.19 462.119 1119.76C469.369 1111.13 476.448 1102.21 483.291 1093.18C511.979 1113.85 566.494 1130.68 579.286 1130.36C595.021 1129.97 651.578 1114 666.661 1116.28C681.744 1118.57 703.817 1109.78 711.109 1091.66C718.411 1073.55 682.505 1058.55 665.396 1052.92Z" fill="white"/>
<path d="M665.396 1052.92C648.297 1047.3 597.755 1055.25 580.343 1056.66C564.521 1057.93 554.651 1025.5 542.619 1005.27C545.036 1001.29 547.312 997.497 549.453 993.887C590.052 1022.53 677.927 1010.79 706.411 982.955C722.651 967.096 715.708 950.038 710.896 931.778C706.083 913.518 713.224 858.325 692.255 812.096C677.849 780.314 652.255 763.689 618.385 760.189C609.047 728.57 587.875 671.726 558.76 646.221C524.807 616.481 449.859 559.351 437.255 547.908C424.656 536.466 388.135 525.153 396.031 559.627C402.531 588.023 400.432 621.929 422.922 657.955C389.661 644.127 358.052 631.32 349.453 627.059C334.208 619.481 295.984 618.679 313.01 649.846C330.041 681.007 337.083 723.559 389.666 755.117C419.364 772.945 461.63 788.596 497.062 799.986C490.484 804.887 484.599 809.533 479.734 813.382C470.505 820.705 467.182 838.46 469.937 860.747C430.146 884.846 382.244 926.591 335.536 940.346C244.781 967.059 192.338 1004.28 165.77 1036.97C140.864 1020.56 96.083 1007.62 89.2861 1027.55C80.5153 1053.3 78.359 1093.51 99.9163 1102.34C113.588 1107.94 126.198 1110.22 136.875 1110.86C136.875 1113.89 137.057 1116.89 137.39 1119.85C116.317 1188.31 250.161 1278.05 253.192 1288.53C256.442 1299.72 213.875 1337.08 204.166 1349.6C194.453 1362.11 190.39 1395.85 227.338 1393.64C243.984 1392.63 364.057 1403.28 375.672 1389C387.312 1374.72 370.203 1355.92 350.182 1349.6C335.635 1345.01 299.854 1343.81 279.276 1345.88C305.38 1329.82 352.01 1295.37 356.797 1284.35C356.953 1283.99 357.073 1283.61 357.224 1283.25C392.286 1290.28 420.213 1292.85 422.619 1297.39C428.078 1307.68 403.494 1337.68 396.536 1351.91C389.578 1366.15 394.218 1377.41 428.984 1382.05C445.51 1384.25 573.489 1396.08 581.953 1379.73C590.437 1363.37 569.698 1331.31 548.812 1329.2C527.906 1327.09 482.396 1335.57 477.557 1328.92C472.708 1322.26 507.39 1268.29 504.354 1250.12C501.323 1231.96 483.442 1203.2 468.005 1188.98C460.224 1181.81 443.468 1168.9 422.771 1157.66C437.515 1146.03 450.817 1133.19 462.119 1119.76C469.369 1111.13 476.448 1102.21 483.291 1093.18C511.979 1113.85 566.494 1130.68 579.286 1130.36C595.021 1129.97 651.578 1114 666.661 1116.28C681.744 1118.57 703.817 1109.78 711.109 1091.66C718.411 1073.55 682.505 1058.55 665.396 1052.92Z" stroke="#929496" stroke-width="11.736" stroke-linecap="round" stroke-linejoin="round"/>
<path d="M322.792 1402.37C305.006 1402.37 283.079 1401.62 256.813 1400.41C243.318 1399.79 231.657 1399.25 227.693 1399.49C207.615 1400.71 198.818 1392.25 194.964 1384.95C188.464 1372.62 192.183 1355.47 199.532 1346C202.62 1342.02 208.485 1336.03 215.271 1329.09C225.495 1318.64 246.521 1297.16 247.469 1290.33C245.396 1287.73 237.469 1280.87 229.787 1274.22C187.605 1237.71 99.8342 1161.75 139.021 1102.98C140.818 1100.28 144.459 1099.55 147.157 1101.35C149.855 1103.15 150.584 1106.79 148.787 1109.49C115.339 1159.65 197.824 1231.04 237.464 1265.34C253.131 1278.9 257.699 1282.98 258.829 1286.9C261.85 1297.3 247.558 1312.88 223.657 1337.3C217.396 1343.7 211.48 1349.74 208.803 1353.19C203.928 1359.48 201.308 1371.81 205.35 1379.47C208.605 1385.65 215.891 1388.45 226.99 1387.78C231.574 1387.5 242.386 1388 257.355 1388.68C277.396 1389.61 304.85 1390.87 327.907 1390.61C364.615 1390.19 370.365 1386.09 371.146 1385.27C373.516 1382.36 374.157 1379.18 373.084 1375.58C370.673 1367.52 360.298 1358.95 348.412 1355.19C334.053 1350.66 300.277 1349.94 281.261 1351.55C273.178 1356.43 265.99 1360.12 262.646 1360.15C262.615 1360.15 262.589 1360.15 262.558 1360.15C259.886 1360.15 257.574 1358.73 256.506 1356.42C254.495 1352.06 257.943 1348.11 260.006 1345.74C261.016 1344.58 263.485 1341.75 277.391 1340.16C285.475 1335.13 296.214 1327.95 308.636 1318.92C335.49 1299.4 349.636 1286.11 351.417 1282.01C362.568 1256.32 358.516 1217.44 347.73 1202.36C345.844 1199.73 346.449 1196.06 349.084 1194.17C351.719 1192.28 355.386 1192.9 357.271 1195.53C370.344 1213.79 375.219 1256.66 362.183 1286.68C357.756 1296.87 330.131 1317.87 314.058 1329.49C311.136 1331.6 306.209 1335.12 300.495 1339.03C301.016 1339.03 301.542 1339.03 302.068 1339.03C318.62 1339.03 340.334 1340.34 351.949 1344C367.761 1349 380.771 1360.34 384.329 1372.22C386.506 1379.51 385.048 1386.78 380.225 1392.71C374.464 1399.79 355.73 1402.37 322.792 1402.37Z" fill="#929496"/>
<path d="M557.941 823.622C557.441 823.622 556.936 823.559 556.426 823.424C480.775 803.288 422.066 781.408 386.645 760.148C344.504 734.861 330.655 703.132 318.436 675.143C314.941 667.137 311.639 659.57 307.858 652.658C299.525 637.398 303.134 628.627 307.624 623.955C317.395 613.794 340.092 615.851 352.066 621.799C358.228 624.861 377.478 632.809 399.764 642.018C431.863 655.278 471.811 671.778 495.78 683.143C545.988 706.945 593.665 790.393 594.139 791.231C595.738 794.054 594.743 797.632 591.926 799.231C589.103 800.825 585.525 799.835 583.926 797.012C571.202 774.549 529.665 712.195 490.754 693.747C467.051 682.512 427.259 666.07 395.285 652.867C371.868 643.19 353.374 635.549 346.848 632.315C337.691 627.762 321.129 626.841 316.087 632.091C312.874 635.424 315.441 642.054 318.16 647.033C322.186 654.403 325.587 662.195 329.191 670.45C340.707 696.825 353.759 726.726 392.681 750.085C426.681 770.492 485.91 792.512 559.447 812.085C562.577 812.919 564.441 816.132 563.608 819.262C562.91 821.887 560.535 823.622 557.941 823.622Z" fill="#929496"/>
<path d="M601.763 871.847C595.607 877.065 595.769 899.503 605.909 907.305C616.05 915.107 631.076 915.565 636.045 906.128C639.93 898.748 639.633 885.612 631.508 875.722C624.196 866.815 609.894 864.951 601.763 871.847Z" fill="#929496"/>
<path d="M704.402 976.34C701.897 976.34 699.386 975.787 696.964 974.668C689.1 971.022 684.147 962.235 684.35 952.282C684.417 949.037 687.089 946.475 690.334 946.532C693.574 946.6 696.152 949.277 696.084 952.517C695.98 957.657 698.371 962.381 701.902 964.017C704.423 965.188 707.094 964.553 709.839 962.126C712.266 959.98 715.975 960.209 718.121 962.636C720.266 965.069 720.037 968.777 717.605 970.918C713.553 974.501 708.98 976.34 704.402 976.34Z" fill="#929496"/>
<path d="M665.516 1007.18C651.152 1007.18 632.287 1006.07 625.912 968.633C625.37 965.44 627.516 962.404 630.714 961.862C633.902 961.326 636.938 963.466 637.485 966.664C642.391 995.498 653.167 995.482 666.834 995.44C667.647 995.44 668.454 995.435 669.256 995.44C672.495 995.456 675.11 998.097 675.094 1001.34C675.079 1004.57 672.454 1007.17 669.225 1007.17H669.199C668.423 1007.17 667.647 1007.17 666.865 1007.17C666.423 1007.18 665.969 1007.18 665.516 1007.18Z" fill="#929496"/>
<path d="M1997.04 899.189C1994.22 899.189 1991.1 898.992 1987.66 898.564L1982.6 897.945C1945.06 893.361 1920.27 890.335 1866.53 849.179C1841.75 830.21 1819.4 807.07 1797.77 784.695C1771.28 757.278 1743.89 728.929 1712.37 708.794C1709.64 707.049 1708.85 703.419 1710.6 700.689C1712.33 697.96 1715.97 697.158 1718.69 698.903C1751.37 719.783 1779.25 748.637 1806.21 776.538C1827.54 798.606 1849.6 821.424 1873.66 839.861C1924.86 879.075 1947.13 881.794 1984.01 886.294L1989.1 886.919C2000.94 888.393 2009.13 886.788 2011.04 882.637C2013.18 877.924 2008.97 868.512 2001.82 862.075C1994.52 855.492 1970.93 833.028 1943.61 807.023C1918.16 782.788 1889.3 755.314 1871.05 738.273C1835.99 705.538 1761.32 686.117 1730.65 681.841C1727.44 681.393 1725.2 678.424 1725.65 675.216C1726.09 672.007 1729.05 669.773 1732.27 670.216C1757.61 673.747 1838.97 692.262 1879.06 729.695C1897.35 746.778 1926.22 774.273 1951.7 798.523C1977.82 823.393 2002.49 846.882 2009.68 853.356C2019.41 862.117 2026.66 876.663 2021.7 887.518C2019.16 893.106 2012.75 899.189 1997.04 899.189Z" fill="#929496"/>
<path d="M1161.74 1168.75C1160.55 1168.75 1159.36 1168.63 1158.18 1168.39C1147.23 1166.17 1140.17 1154.56 1127.34 1133.49C1125.76 1130.89 1124.09 1128.14 1122.31 1125.25C1108.5 1102.81 1086.58 1077.48 1068.97 1057.12C1058.37 1044.86 1049.21 1034.28 1043.11 1025.96C1036.41 1016.82 1037.93 1006.24 1047.1 998.347C1062.94 984.701 1095.82 981.857 1112.89 998.795C1128.08 1013.87 1138.21 1034.12 1146.34 1050.39C1150.58 1058.88 1156.39 1070.49 1159.17 1071.8C1170.76 1075.92 1182.85 1060.56 1196.86 1042.78C1209.95 1026.17 1224.78 1007.34 1243.98 999.248C1259.52 992.701 1283.66 990.383 1306.98 993.191C1326.74 995.576 1354.9 1002.54 1376.8 1022.21C1379.21 1024.38 1379.41 1028.09 1377.23 1030.5C1375.08 1032.91 1371.37 1033.11 1368.96 1030.94C1332.82 998.481 1272.28 1000.06 1248.54 1010.06C1232.12 1016.98 1218.29 1034.54 1206.08 1050.05C1189.97 1070.49 1174.77 1089.79 1155.2 1082.85C1148.21 1080.36 1143.29 1070.53 1135.84 1055.64C1128.09 1040.14 1118.45 1020.84 1104.62 1007.13C1091.44 994.039 1065.28 998.174 1054.76 1007.24C1048.87 1012.3 1050.5 1016.19 1052.57 1019.02C1058.4 1026.96 1067.41 1037.37 1077.84 1049.44C1095.73 1070.12 1118 1095.85 1132.31 1119.1C1134.1 1122.01 1135.78 1124.78 1137.37 1127.39C1147.74 1144.43 1154.59 1155.68 1160.51 1156.88C1163.17 1157.42 1166.88 1155.94 1171.85 1152.36C1176.14 1149.26 1181.37 1142.3 1186.91 1134.93C1199 1118.84 1214.06 1098.81 1234.71 1097.66C1247.37 1096.94 1259.82 1103.28 1272.74 1116.99C1301.52 1147.52 1324.96 1156.25 1356.34 1148.13C1359.49 1147.32 1362.69 1149.21 1363.5 1152.34C1364.32 1155.48 1362.42 1158.68 1359.29 1159.49C1323.54 1168.75 1295.98 1158.76 1264.2 1125.03C1253.95 1114.15 1244.24 1108.88 1235.36 1109.38C1220.16 1110.23 1207.48 1127.1 1196.29 1141.98C1189.94 1150.44 1184.45 1157.74 1178.71 1161.88C1172.24 1166.54 1166.85 1168.75 1161.74 1168.75Z" fill="#929496"/>
<path d="M1491.04 844.466C1490.85 844.466 1490.66 844.456 1490.49 844.439C1446.66 840.404 1382.04 815.257 1357.74 797.132C1333.37 778.945 1290.16 717.274 1290.56 688.612C1290.74 675.8 1298.66 665.606 1311.75 661.336C1327.31 656.269 1344.46 661.08 1353.46 673.054C1366.11 689.898 1427.49 739.715 1513.18 751.226C1516.4 751.658 1518.65 754.611 1518.22 757.825C1517.78 761.033 1514.84 763.284 1511.62 762.856C1423.94 751.085 1359.85 701.096 1344.08 680.106C1337.35 671.158 1324.56 669.507 1315.39 672.497C1311.5 673.762 1302.45 677.882 1302.3 688.773C1301.98 711.632 1340.75 769.809 1364.77 787.726C1387.72 804.851 1450.73 828.992 1491.56 832.752C1494.78 833.049 1497.17 835.908 1496.86 839.132C1496.58 842.179 1494.02 844.466 1491.04 844.466Z" fill="#929496"/>
</svg>
