<svg width="2134" height="1600" viewBox="0 0 2134 1600" fill="none" xmlns="http://www.w3.org/2000/svg">
<path d="M1454.98 370.886C1456.39 331.063 1425.84 353.764 1414.34 369.091C1402.83 384.417 1324.53 483.77 1302.39 529.519C1287.99 559.269 1273.03 594.949 1264.62 622.515C1238.8 625.309 1221.76 635.2 1199.82 660.418C1177.21 686.405 1173.24 705.509 1160.66 721.578C1148.08 737.668 1125.42 744.613 1129.86 768.079C1135.53 798.048 1182.19 828.687 1189.42 836.214C1209.42 857.05 1225.93 863.993 1268.07 877.41C1271.88 878.63 1276.16 879.177 1280.67 879.217C1243.22 913.017 1210.21 967.565 1170.8 972.844C1147.12 976.012 1133.07 1004.08 1153.78 1018.86C1180.56 1038.01 1251.98 975.897 1283.29 966.55C1263.9 987.986 1234.8 1017.13 1224.95 1021.98C1203.5 1032.52 1202.17 1070.57 1227.1 1075.66C1252.04 1080.75 1318.63 1051.9 1341.1 1031.26C1347.13 1025.74 1354.13 1017.43 1361.33 1007.53C1411.06 1079.19 1468.43 1123.32 1529.44 1140.97C1526.17 1157.5 1525.87 1172.86 1528.21 1183.76C1537.09 1225.09 1596.93 1267.09 1581.56 1293.4C1575.88 1303.15 1530.14 1317.3 1505.52 1326.68C1480.89 1336.07 1483.79 1393.98 1508.81 1382.03C1533.81 1370.08 1582.15 1337.53 1621.54 1322.5C1660.95 1307.49 1675.33 1304.4 1664.8 1281.87C1654.26 1259.33 1588.68 1220.63 1646.67 1183.59C1654.33 1178.69 1646.98 1183.57 1652.87 1178.45C1698.33 1188.18 1769.79 1160.51 1797.5 1113.95C1822.09 1072.66 1842.71 993.135 1874.95 980.576C1886.89 975.927 1942.12 993.115 1968.37 1000.94C1994.62 1008.77 2037.26 957.531 2008.72 951.646C1980.18 945.751 1917.7 942.446 1875.69 929.928C1834.73 917.723 1831.59 920.66 1822.26 944.388C1819.82 939.6 1806.47 925.611 1803.54 921.515C1816.85 908.423 1828.26 886.248 1832.01 854.106C1837.8 804.68 1770.13 810.772 1750.94 825C1735.5 836.447 1726.62 871.567 1716.68 892.025C1676.42 891.9 1628.28 886.354 1602.06 876.706C1544.82 855.644 1457.75 781.464 1410.69 750.882C1408.71 719.515 1409.54 675.512 1374.73 650.364C1367.63 645.232 1360.63 640.529 1353.72 636.38C1396.34 602.958 1446.8 576.974 1486.97 541.012C1538.45 494.948 1544.15 471.865 1556.37 433.764C1568.59 395.684 1540.45 398.586 1525.19 410.189C1514.5 418.312 1467.44 451.941 1426.08 481.703C1451.6 435.507 1453.74 405.847 1454.98 370.886Z" fill="white"/>
<path d="M1454.98 370.886C1456.39 331.063 1425.84 353.764 1414.34 369.091C1402.83 384.417 1324.53 483.77 1302.39 529.519C1287.99 559.269 1273.03 594.949 1264.62 622.515C1238.8 625.309 1221.76 635.2 1199.82 660.418C1177.21 686.405 1173.24 705.509 1160.66 721.578C1148.08 737.668 1125.42 744.613 1129.86 768.079C1135.53 798.048 1182.19 828.687 1189.42 836.214C1209.42 857.05 1225.93 863.993 1268.07 877.41C1271.88 878.63 1276.16 879.177 1280.67 879.217C1243.22 913.017 1213.15 972.015 1173.75 977.294C1150.07 980.462 1136.01 1008.53 1156.72 1023.31C1183.5 1042.46 1251.98 975.897 1283.29 966.55C1263.9 987.986 1234.8 1017.13 1224.95 1021.98C1203.5 1032.52 1202.17 1070.57 1227.1 1075.66C1252.04 1080.75 1318.63 1051.9 1341.1 1031.26C1347.13 1025.74 1354.13 1017.43 1361.33 1007.53C1411.06 1079.19 1468.43 1123.32 1529.44 1140.97C1526.17 1157.5 1525.87 1172.86 1528.21 1183.76C1537.09 1225.09 1596.93 1267.09 1581.56 1293.4C1575.88 1303.15 1530.14 1317.3 1505.52 1326.68C1480.89 1336.07 1483.79 1393.98 1508.81 1382.03C1533.81 1370.08 1582.15 1337.53 1621.54 1322.5C1660.95 1307.49 1675.33 1304.4 1664.8 1281.87C1654.26 1259.33 1588.68 1220.63 1646.67 1183.59C1654.33 1178.69 1646.98 1183.57 1652.87 1178.45C1698.33 1188.18 1769.79 1160.51 1797.5 1113.95C1822.09 1072.66 1842.71 993.135 1874.95 980.576C1886.89 975.927 1942.12 993.115 1968.37 1000.94C1994.62 1008.77 2037.26 957.531 2008.72 951.646C1980.18 945.751 1917.7 942.446 1875.69 929.928C1834.73 917.723 1831.59 920.66 1822.26 944.388C1819.82 939.6 1806.47 925.611 1803.54 921.515C1816.85 908.423 1828.26 886.248 1832.01 854.106C1837.8 804.68 1770.13 810.772 1750.94 825C1735.5 836.447 1726.62 871.567 1716.68 892.025C1676.42 891.9 1628.28 886.354 1602.06 876.706C1544.82 855.644 1457.75 781.464 1410.69 750.882C1408.71 719.515 1409.54 675.512 1374.73 650.364C1367.63 645.232 1360.63 640.529 1353.72 636.38C1396.34 602.958 1446.8 576.974 1486.97 541.012C1538.45 494.948 1544.15 471.865 1556.37 433.763C1568.59 395.684 1540.45 398.586 1525.19 410.189C1514.5 418.312 1467.44 451.941 1426.08 481.703C1451.6 435.507 1453.74 405.847 1454.98 370.886Z" stroke="#929496" stroke-width="11.736" stroke-linecap="round" stroke-linejoin="round"/>
<path d="M1295.62 645.87C1305.04 617.976 1338.26 545.644 1379.29 515.575C1420.31 485.514 1509.91 421.796 1525.19 410.186C1540.45 398.583 1568.59 395.68 1556.36 433.76C1544.14 471.861 1538.45 494.945 1486.97 541.009C1435.49 587.084 1367.08 616.729 1319.99 666.699" fill="white"/>
<path d="M1573.31 1063.44C1534.48 1093.06 1521.93 1154.5 1528.21 1183.75C1537.09 1225.09 1598.4 1258.49 1583.02 1284.81C1577.33 1294.56 1531.49 1297.55 1500.96 1318.54C1474.58 1336.67 1483.79 1393.98 1508.81 1382.03C1533.81 1370.08 1582.15 1337.53 1621.54 1322.5C1660.95 1307.49 1675.33 1304.4 1664.8 1281.87C1654.27 1259.32 1588.68 1220.63 1646.67 1183.59C1681.19 1161.53 1697.95 1138.57 1695.52 1101.9" fill="white"/>
<path d="M1253.47 689.227C1258.87 695.207 1255.72 717.427 1244.63 723.795C1233.53 730.191 1218.58 728.622 1214.92 718.606C1212.06 710.786 1214.1 697.8 1223.47 689.091C1231.91 681.244 1246.33 681.29 1253.47 689.227Z" fill="#929496"/>
<path d="M1160.57 759.982C1158.88 768.903 1153.08 776.019 1145.39 778.399C1138.19 780.617 1130.91 778.262 1125.42 771.92C1123.31 769.463 1123.57 765.768 1126.02 763.646C1128.47 761.525 1132.18 761.79 1134.3 764.247C1136.7 767.013 1139.26 768.017 1141.92 767.187C1145.64 766.029 1148.65 761.663 1149.22 756.571C1149.61 753.347 1152.49 751.043 1155.72 751.409C1158.93 751.774 1161.25 754.686 1160.88 757.894C1160.8 758.601 1160.69 759.304 1160.57 759.982Z" fill="#929496"/>
<path d="M1216.77 781.252C1216.73 781.459 1216.68 781.683 1216.6 781.913C1207.5 811.049 1190.26 823.548 1163.88 820.139C1160.67 819.724 1158.4 816.79 1158.82 813.572C1159.23 810.343 1162.18 808.082 1165.39 808.497C1179.09 810.288 1196.02 808.466 1205.4 778.407C1206.37 775.323 1209.66 773.595 1212.75 774.558C1215.62 775.458 1217.32 778.354 1216.77 781.252Z" fill="#929496"/>
<path d="M986.739 1291.88L1015.92 1391.01C1014.81 1434.26 932.896 1469.34 830.484 1469.34C728.073 1469.34 645.052 1434.27 645.057 1391.01L674.229 1294.78L645.057 1097.49C645.057 1061.79 728.073 1032.04 830.484 1032.04C932.896 1032.04 1016.91 1058.81 1015.92 1097.49" fill="#DBA100"/>
<path d="M986.739 1291.88L1015.92 1391.01C1014.81 1434.26 932.896 1469.34 830.484 1469.34C728.073 1469.34 645.052 1434.27 645.057 1391.01L674.229 1294.78L645.057 1097.49C645.057 1061.79 728.073 1032.04 830.484 1032.04C932.896 1032.04 1016.91 1058.81 1015.92 1097.49L986.739 1291.88Z" stroke="#6C6E70" stroke-width="11.736" stroke-linecap="round" stroke-linejoin="round"/>
<path d="M830.485 1046.1C741.147 1046.1 668.725 1068.63 668.725 1095.67C668.725 1128.43 741.147 1155 830.485 1155C919.829 1155 991.282 1128.42 992.256 1095.67C993.12 1066.37 919.829 1046.1 830.485 1046.1Z" fill="#DBA100"/>
<path d="M830.485 1046.1C741.147 1046.1 668.725 1068.63 668.725 1095.67C668.725 1128.43 741.147 1155 830.485 1155C919.829 1155 991.282 1128.42 992.256 1095.67C993.12 1066.37 919.829 1046.1 830.485 1046.1Z" stroke="#6C6E70" stroke-width="11.736" stroke-linecap="round" stroke-linejoin="round"/>
<path d="M770.713 1070.66C786.906 1066.85 791.572 1061.58 821.536 1061.54C851.5 1061.5 901.134 1079.22 916.317 1085.61C931.5 1092 939.067 1101.46 949.682 1111.31C960.5 1121.37 970.047 1141.62 957.224 1154.01C943.479 1167.29 919.823 1163.59 903.87 1168.88L773.963 1173.84C752.807 1162.01 733.224 1145.85 712.432 1134.2C696.135 1125.07 696.119 1104.4 711.739 1092.73C728.771 1080.01 750.833 1075.35 770.713 1070.66Z" fill="white" stroke="#D0D2D3" stroke-width="7.39467" stroke-linecap="round" stroke-linejoin="round"/>
<path d="M974.638 922.277C953.554 1010.21 887.922 1127.74 887.922 1127.74C880.638 1146.55 846.869 1151.02 812.524 1137.71C778.159 1124.42 756.207 1098.37 763.492 1079.56C763.492 1079.56 809.352 916.139 826.918 861.717C843.299 810.992 867.419 780.595 867.419 780.595C881.683 762.732 908.467 757.312 942.828 770.613C977.196 783.922 999.144 809.956 991.86 828.772C991.86 828.772 995.727 834.324 974.638 922.277Z" fill="#DBA100"/>
<path d="M974.638 922.277C953.554 1010.21 887.922 1127.74 887.922 1127.74C880.638 1146.55 846.869 1151.02 812.524 1137.71C778.159 1124.42 756.207 1098.37 763.492 1079.56C763.492 1079.56 809.352 916.139 826.918 861.717C843.299 810.992 867.419 780.595 867.419 780.595C881.683 762.732 908.467 757.312 942.828 770.613C977.196 783.922 999.144 809.956 991.86 828.772C991.86 828.772 995.727 834.324 974.638 922.277Z" stroke="#6C6E70" stroke-width="11.736" stroke-linecap="round" stroke-linejoin="round"/>
<path d="M838.889 1069.58C873.249 1082.88 895.207 1108.91 887.927 1127.74C880.637 1146.55 846.867 1151.02 812.522 1137.72C778.157 1124.42 756.191 1098.38 763.491 1079.56C770.759 1060.75 804.534 1056.28 838.889 1069.58Z" fill="#DBA100"/>
<path d="M896.496 1112C886.498 1142 846.864 1151.02 812.519 1137.71C778.154 1124.41 755.498 1100 766.996 1067.5" stroke="#6C6E70" stroke-width="11.736" stroke-linecap="round" stroke-linejoin="round"/>
<path d="M949.237 876.296C955.165 863.049 967.759 855.802 977.337 860.103L1301.9 1006.74C1311.48 1011.04 1314.43 1025.24 1308.48 1038.49C1302.54 1051.72 1289.96 1058.97 1280.37 1054.67L955.824 908.059C946.239 903.749 943.293 889.527 949.237 876.296Z" fill="#DBA100"/>
<path d="M949.237 876.296C955.165 863.049 967.759 855.802 977.337 860.103L1301.9 1006.74C1311.48 1011.04 1314.43 1025.24 1308.48 1038.49C1302.54 1051.72 1289.96 1058.97 1280.37 1054.67L955.824 908.059C946.239 903.749 943.293 889.527 949.237 876.296Z" stroke="#6C6E70" stroke-width="11.736" stroke-linecap="round" stroke-linejoin="round"/>
<path d="M668.724 1095.67C668.724 1128.43 741.146 1155 830.484 1155C919.828 1155 991.281 1128.42 992.255 1095.67L1015.92 1097.49C1014.81 1140.74 932.896 1175.82 830.484 1175.82C728.073 1175.82 645.052 1140.75 645.057 1097.49" fill="#DBA100"/>
<path d="M830.483 1180.54C780.337 1180.54 733.118 1172.26 697.525 1157.23C660.65 1141.64 640.332 1120.43 640.332 1097.49C640.332 1094.88 642.447 1092.77 645.056 1092.77C647.66 1092.77 649.77 1094.88 649.77 1097.49C649.764 1116.12 668.514 1134.73 701.197 1148.53C735.65 1163.09 781.566 1171.11 830.483 1171.11C929.087 1171.11 1010.16 1138.03 1011.2 1097.36C1011.27 1094.75 1013.57 1092.64 1016.04 1092.77C1018.65 1092.84 1020.7 1095 1020.64 1097.61C1019.44 1144.12 935.915 1180.54 830.483 1180.54Z" fill="#6C6E70"/>
<path d="M830.485 1159.72C786.73 1159.72 745.542 1153.44 714.48 1142.05C681.928 1130.11 664.006 1113.64 664.006 1095.67C664.006 1093.06 666.12 1090.95 668.725 1090.95C671.329 1090.95 673.443 1093.06 673.443 1095.67C673.438 1109.19 689.579 1122.87 717.725 1133.19C747.772 1144.22 787.818 1150.28 830.485 1150.28C923.459 1150.28 986.756 1121.97 987.537 1095.52C987.61 1092.92 989.777 1090.91 992.397 1090.95C994.995 1091.02 997.048 1093.19 996.969 1095.8C995.912 1131.65 922.782 1159.72 830.485 1159.72Z" fill="#6C6E70"/>
<path d="M1334.45 876.181C1306.93 959.067 1246.38 1011.44 1224.95 1021.98C1203.51 1032.52 1202.17 1070.57 1227.1 1075.66C1252.05 1080.75 1318.63 1051.9 1341.09 1031.28C1363.56 1010.66 1399.24 952.035 1410.61 912.366" fill="white"/>
<path d="M519.338 1052.12C592.791 1055.99 648.838 1093.47 662.182 1108.53C675.526 1123.59 706.734 1116.18 705.291 1094.8C703.864 1073.4 665.573 1025.77 643.812 1012.13C622.057 998.475 566.479 982.574 531.729 982.199" fill="white"/>
<path d="M519.338 1052.12C592.791 1055.99 648.838 1093.47 662.182 1108.53C675.526 1123.59 706.734 1116.18 705.291 1094.8C703.864 1073.4 665.573 1025.77 643.812 1012.13C622.057 998.475 566.479 982.574 531.729 982.199L519.338 1052.12Z" stroke="#929496" stroke-width="9.884" stroke-linecap="round" stroke-linejoin="round"/>
<path d="M665.396 1052.92C648.297 1047.3 597.755 1055.25 580.343 1056.66C564.521 1057.93 554.651 1025.5 542.619 1005.27C545.036 1001.29 547.312 997.497 549.453 993.887C590.052 1022.53 677.927 1010.79 706.411 982.955C722.651 967.096 715.708 950.038 710.896 931.778C706.083 913.518 713.224 858.325 692.255 812.096C677.849 780.315 652.255 763.69 618.385 760.19C609.047 728.57 587.875 671.726 558.76 646.221C524.807 616.481 449.859 559.351 437.255 547.908C424.656 536.466 388.135 525.153 396.031 559.627C402.531 588.023 400.432 621.929 422.922 657.955C389.661 644.127 358.052 631.32 349.453 627.059C334.208 619.481 295.984 618.679 313.01 649.846C330.041 681.007 337.083 723.559 389.666 755.117C419.364 772.945 461.63 788.596 497.062 799.986C490.484 804.887 484.599 809.533 479.734 813.382C470.505 820.705 467.182 838.46 469.937 860.747C430.146 884.846 382.244 926.591 335.536 940.346C244.781 967.059 192.338 1004.28 165.77 1036.97C140.864 1020.56 96.083 1007.62 89.2861 1027.55C80.5153 1053.3 78.359 1093.51 99.9163 1102.34C113.588 1107.94 126.198 1110.22 136.875 1110.86C136.875 1113.89 137.057 1116.89 137.39 1119.85C116.317 1188.31 250.161 1278.05 253.192 1288.53C256.442 1299.72 213.875 1337.08 204.166 1349.6C194.453 1362.11 190.39 1395.85 227.338 1393.64C243.984 1392.63 364.057 1403.28 375.672 1389C387.312 1374.72 370.203 1355.92 350.182 1349.6C335.635 1345.01 299.854 1343.81 279.276 1345.88C305.38 1329.82 352.01 1295.37 356.797 1284.35C356.953 1283.99 357.073 1283.61 357.224 1283.25C392.286 1290.28 420.213 1292.85 422.619 1297.39C428.078 1307.68 403.494 1337.68 396.536 1351.91C389.578 1366.15 394.218 1377.41 428.984 1382.05C445.51 1384.25 573.489 1396.08 581.953 1379.73C590.437 1363.37 569.698 1331.31 548.812 1329.2C527.906 1327.09 482.396 1335.57 477.557 1328.92C472.708 1322.26 507.39 1268.29 504.354 1250.12C501.323 1231.96 483.442 1203.2 468.005 1188.98C460.224 1181.81 443.468 1168.9 422.77 1157.66C437.515 1146.03 450.817 1133.19 462.119 1119.76C469.369 1111.13 476.448 1102.21 483.291 1093.18C511.979 1113.85 566.494 1130.68 579.286 1130.36C595.021 1129.97 651.578 1114 666.661 1116.28C681.744 1118.57 703.817 1109.78 711.109 1091.66C718.411 1073.55 682.505 1058.55 665.396 1052.92Z" fill="white"/>
<path d="M665.396 1052.92C648.297 1047.3 597.755 1055.25 580.343 1056.66C564.521 1057.93 554.651 1025.5 542.619 1005.27C545.036 1001.29 547.312 997.497 549.453 993.887C590.052 1022.53 677.927 1010.79 706.411 982.955C722.651 967.096 715.708 950.038 710.896 931.778C706.083 913.518 713.224 858.325 692.255 812.096C677.849 780.314 652.255 763.689 618.385 760.189C609.047 728.57 587.875 671.726 558.76 646.221C524.807 616.481 449.859 559.351 437.255 547.908C424.656 536.466 388.135 525.153 396.031 559.627C402.531 588.023 400.432 621.929 422.922 657.955C389.661 644.127 358.052 631.32 349.453 627.059C334.208 619.481 295.984 618.679 313.01 649.846C330.041 681.007 337.083 723.559 389.666 755.117C419.364 772.945 461.63 788.596 497.062 799.986C490.484 804.887 484.599 809.533 479.734 813.382C470.505 820.705 467.182 838.46 469.937 860.747C430.146 884.846 382.244 926.591 335.536 940.346C244.781 967.059 192.338 1004.28 165.77 1036.97C140.864 1020.56 96.083 1007.62 89.2861 1027.55C80.5153 1053.3 78.359 1093.51 99.9163 1102.34C113.588 1107.94 126.198 1110.22 136.875 1110.86C136.875 1113.89 137.057 1116.89 137.39 1119.85C116.317 1188.31 250.161 1278.05 253.192 1288.53C256.442 1299.72 213.875 1337.08 204.166 1349.6C194.453 1362.11 190.39 1395.85 227.338 1393.64C243.984 1392.63 364.057 1403.28 375.672 1389C387.312 1374.72 370.203 1355.92 350.182 1349.6C335.635 1345.01 299.854 1343.81 279.276 1345.88C305.38 1329.82 352.01 1295.37 356.797 1284.35C356.953 1283.99 357.073 1283.61 357.224 1283.25C392.286 1290.28 420.213 1292.85 422.619 1297.39C428.078 1307.68 403.494 1337.68 396.536 1351.91C389.578 1366.15 394.218 1377.41 428.984 1382.05C445.51 1384.25 573.489 1396.08 581.953 1379.73C590.437 1363.37 569.698 1331.31 548.812 1329.2C527.906 1327.09 482.396 1335.57 477.557 1328.92C472.708 1322.26 507.39 1268.29 504.354 1250.12C501.323 1231.96 483.442 1203.2 468.005 1188.98C460.224 1181.81 443.468 1168.9 422.771 1157.66C437.515 1146.03 450.817 1133.19 462.119 1119.76C469.369 1111.13 476.448 1102.21 483.291 1093.18C511.979 1113.85 566.494 1130.68 579.286 1130.36C595.021 1129.97 651.578 1114 666.661 1116.28C681.744 1118.57 703.817 1109.78 711.109 1091.66C718.411 1073.55 682.505 1058.55 665.396 1052.92Z" stroke="#929496" stroke-width="11.736" stroke-linecap="round" stroke-linejoin="round"/>
<path d="M322.79 1402.37C305.004 1402.37 283.077 1401.62 256.811 1400.41C243.316 1399.79 231.655 1399.25 227.691 1399.49C207.613 1400.71 198.816 1392.25 194.962 1384.95C188.462 1372.62 192.181 1355.47 199.53 1346C202.618 1342.02 208.483 1336.03 215.269 1329.09C225.493 1318.64 246.519 1297.16 247.467 1290.33C245.394 1287.73 237.467 1280.87 229.785 1274.22C187.603 1237.71 99.8322 1161.75 139.019 1102.98C140.816 1100.28 144.457 1099.55 147.155 1101.35C149.853 1103.15 150.582 1106.79 148.785 1109.49C115.337 1159.65 197.822 1231.04 237.462 1265.34C253.129 1278.9 257.697 1282.98 258.827 1286.9C261.848 1297.3 247.556 1312.88 223.655 1337.3C217.394 1343.7 211.478 1349.74 208.801 1353.19C203.926 1359.48 201.306 1371.81 205.348 1379.47C208.603 1385.65 215.889 1388.45 226.988 1387.78C231.572 1387.5 242.384 1388 257.353 1388.68C277.394 1389.61 304.848 1390.87 327.905 1390.61C364.613 1390.19 370.363 1386.09 371.144 1385.27C373.514 1382.36 374.155 1379.18 373.082 1375.58C370.671 1367.52 360.296 1358.95 348.41 1355.19C334.051 1350.66 300.275 1349.94 281.259 1351.55C273.176 1356.43 265.988 1360.12 262.644 1360.15C262.613 1360.15 262.587 1360.15 262.556 1360.15C259.884 1360.15 257.572 1358.73 256.504 1356.42C254.493 1352.06 257.941 1348.11 260.004 1345.74C261.014 1344.58 263.483 1341.75 277.389 1340.16C285.473 1335.13 296.212 1327.95 308.634 1318.92C335.488 1299.4 349.634 1286.11 351.415 1282.01C362.566 1256.32 358.514 1217.44 347.728 1202.36C345.842 1199.73 346.447 1196.06 349.082 1194.17C351.717 1192.28 355.384 1192.9 357.269 1195.53C370.342 1213.79 375.217 1256.66 362.181 1286.68C357.754 1296.87 330.129 1317.87 314.056 1329.49C311.134 1331.6 306.207 1335.12 300.493 1339.03C301.014 1339.03 301.54 1339.03 302.066 1339.03C318.618 1339.03 340.332 1340.34 351.947 1344C367.759 1349 380.769 1360.34 384.327 1372.22C386.504 1379.51 385.046 1386.78 380.223 1392.71C374.462 1399.79 355.728 1402.37 322.79 1402.37Z" fill="#929496"/>
<path d="M557.943 823.622C557.443 823.622 556.938 823.559 556.428 823.424C480.777 803.288 422.068 781.408 386.646 760.148C344.506 734.861 330.657 703.132 318.438 675.143C314.943 667.137 311.641 659.57 307.86 652.658C299.527 637.398 303.136 628.627 307.626 623.955C317.397 613.794 340.093 615.851 352.067 621.799C358.229 624.861 377.48 632.809 399.766 642.018C431.865 655.278 471.813 671.778 495.782 683.143C545.99 706.945 593.667 790.393 594.141 791.231C595.74 794.054 594.744 797.632 591.927 799.231C589.104 800.825 585.526 799.835 583.927 797.012C571.203 774.549 529.667 712.195 490.756 693.747C467.053 682.512 427.261 666.07 395.287 652.867C371.87 643.19 353.376 635.549 346.85 632.315C337.693 627.762 321.131 626.841 316.089 632.091C312.876 635.424 315.443 642.054 318.162 647.033C322.188 654.403 325.588 662.195 329.192 670.45C340.708 696.825 353.761 726.726 392.683 750.085C426.683 770.492 485.911 792.512 559.448 812.085C562.578 812.919 564.443 816.132 563.609 819.262C562.911 821.887 560.537 823.622 557.943 823.622Z" fill="#929496"/>
<path d="M601.765 871.847C595.609 877.065 595.771 899.503 605.911 907.305C616.052 915.107 631.078 915.565 636.047 906.128C639.932 898.748 639.635 885.612 631.51 875.722C624.198 866.815 609.896 864.951 601.765 871.847Z" fill="#929496"/>
<path d="M704.402 976.34C701.897 976.34 699.386 975.787 696.964 974.668C689.1 971.022 684.147 962.235 684.35 952.282C684.417 949.037 687.089 946.475 690.334 946.532C693.574 946.6 696.152 949.277 696.084 952.517C695.98 957.657 698.371 962.381 701.902 964.017C704.423 965.188 707.094 964.553 709.839 962.126C712.266 959.98 715.975 960.209 718.121 962.636C720.266 965.069 720.037 968.777 717.605 970.918C713.553 974.501 708.98 976.34 704.402 976.34Z" fill="#929496"/>
<path d="M665.516 1007.18C651.152 1007.18 632.287 1006.07 625.912 968.633C625.37 965.44 627.516 962.404 630.714 961.862C633.902 961.326 636.938 963.466 637.485 966.664C642.391 995.498 653.167 995.482 666.834 995.44C667.647 995.44 668.454 995.435 669.256 995.44C672.495 995.456 675.11 998.097 675.094 1001.34C675.079 1004.57 672.454 1007.17 669.225 1007.17H669.199C668.423 1007.17 667.647 1007.17 666.865 1007.17C666.423 1007.18 665.969 1007.18 665.516 1007.18Z" fill="#929496"/>
<path d="M1564.31 426.465C1563.79 429.236 1563.01 432.264 1561.95 435.565L1560.4 440.421C1548.91 476.452 1541.33 500.246 1490.89 545.388C1467.64 566.205 1440.74 583.858 1414.73 600.946C1382.87 621.87 1349.92 643.506 1324.27 670.728C1322.04 673.086 1318.33 673.186 1315.97 670.959C1313.61 668.751 1313.5 665.026 1315.72 662.678C1342.32 634.455 1375.86 612.432 1408.29 591.135C1433.94 574.285 1460.47 556.857 1483.06 536.648C1531.12 493.64 1537.93 472.266 1549.22 436.867L1550.78 431.983C1554.43 420.624 1554.38 412.278 1550.66 409.629C1546.42 406.649 1536.39 409.034 1528.74 414.861C1520.91 420.809 1494.45 439.806 1463.81 461.809C1435.27 482.304 1402.9 505.547 1382.76 520.306C1344.07 548.662 1311.1 618.413 1301.19 647.751C1300.15 650.822 1296.81 652.47 1293.75 651.431C1290.68 650.402 1289.03 647.077 1290.07 643.996C1298.25 619.756 1331.58 543.263 1375.82 510.84C1396.01 496.049 1428.4 472.8 1456.97 452.278C1486.26 431.243 1513.93 411.375 1521.63 405.516C1532.05 397.586 1547.69 393.17 1557.44 400.064C1562.45 403.599 1567.24 411.029 1564.31 426.465Z" fill="#929496"/>
<path d="M1673.71 1297.34C1673.49 1298.51 1673.15 1299.65 1672.69 1300.77C1668.47 1311.11 1655.75 1315.89 1632.66 1324.57C1629.81 1325.64 1626.8 1326.77 1623.63 1327.98C1599.01 1337.38 1570.04 1354.2 1546.76 1367.71C1532.74 1375.84 1520.64 1382.88 1511.33 1387.32C1501.11 1392.2 1490.99 1388.74 1484.95 1378.26C1474.49 1360.16 1477.81 1327.32 1497.63 1313.7C1515.27 1301.58 1537.05 1295.4 1554.55 1290.44C1563.68 1287.85 1576.17 1284.31 1577.97 1281.82C1584.18 1271.2 1571.34 1256.46 1556.47 1239.39C1542.59 1223.43 1526.85 1205.36 1522.47 1184.99C1518.93 1168.5 1521.15 1144.35 1528.24 1121.96C1534.26 1102.99 1546.35 1076.62 1569.75 1058.76C1572.33 1056.8 1576.01 1057.29 1577.98 1059.88C1579.94 1062.44 1579.45 1066.13 1576.87 1068.09C1538.25 1097.56 1528.54 1157.33 1533.94 1182.52C1537.69 1199.94 1552.37 1216.8 1565.33 1231.68C1582.42 1251.31 1598.55 1269.84 1588.09 1287.78C1584.34 1294.18 1573.77 1297.19 1557.75 1301.73C1541.08 1306.46 1520.32 1312.34 1504.28 1323.38C1488.96 1333.89 1488.16 1360.37 1495.11 1372.39C1498.98 1379.12 1503.11 1378.24 1506.28 1376.73C1515.16 1372.48 1527.07 1365.57 1540.87 1357.57C1564.52 1343.84 1593.94 1326.75 1619.45 1317.01C1622.64 1315.8 1625.67 1314.66 1628.53 1313.58C1647.21 1306.57 1659.53 1301.93 1661.82 1296.34C1662.84 1293.82 1662.08 1289.9 1659.49 1284.35C1657.24 1279.56 1651.37 1273.13 1645.16 1266.31C1631.6 1251.44 1614.73 1232.91 1617.44 1212.41C1619.09 1199.84 1627.63 1188.79 1643.51 1178.64C1678.86 1156.05 1691.8 1134.64 1689.66 1102.3C1689.45 1099.05 1691.91 1096.26 1695.13 1096.05C1698.37 1095.83 1701.16 1098.29 1701.37 1101.51C1703.82 1138.36 1688.87 1163.58 1649.82 1188.53C1637.22 1196.58 1630.24 1205.14 1629.08 1213.95C1627.08 1229.05 1641.3 1244.64 1653.83 1258.41C1660.97 1266.22 1667.12 1272.97 1670.12 1279.38C1673.49 1286.61 1674.66 1292.32 1673.71 1297.34Z" fill="#929496"/>
<path d="M1416.38 913.44C1416.34 913.627 1416.3 913.811 1416.25 913.975C1404.13 956.288 1367.39 1015.1 1345.06 1035.6C1322.66 1056.16 1254.02 1087.14 1225.93 1081.41C1213.38 1078.85 1204.84 1069.17 1203.08 1055.52C1201 1039.28 1208.92 1023.33 1222.36 1016.72C1241.26 1007.42 1301.63 956.385 1328.89 874.334C1329.91 871.251 1333.23 869.59 1336.31 870.61C1339.38 871.64 1341.04 874.947 1340.02 878.031C1312.14 961.989 1251.1 1015.66 1227.54 1027.24C1217.49 1032.19 1213.49 1044.45 1214.72 1054.02C1215.24 1058.07 1217.61 1067.73 1228.28 1069.91C1250.68 1074.48 1315.05 1047.21 1337.13 1026.94C1358.23 1007.58 1393.67 950.166 1404.96 910.749C1405.86 907.64 1409.11 905.824 1412.22 906.729C1415.16 907.571 1416.93 910.512 1416.38 913.44Z" fill="#929496"/>
</svg>
