<svg width="2134" height="1600" viewBox="0 0 2134 1600" fill="none" xmlns="http://www.w3.org/2000/svg">
<path d="M2031.3 781.424C2070.69 775.398 2042.7 749.606 2025.5 741.158C2008.3 732.7 1896.11 674.257 1847.04 661.018C1815.13 652.408 1777.29 644.351 1748.64 641.216C1741.09 616.372 1728.2 601.466 1699.34 584.606C1669.6 567.231 1650.09 566.882 1631.96 557.507C1613.81 548.143 1602.77 527.174 1580.54 535.903C1552.15 547.054 1530.73 598.601 1524.68 607.106C1507.93 630.632 1504.18 648.143 1498.84 692.044C1498.35 696.012 1498.61 700.325 1499.41 704.762C1459.23 674.252 1440.46 649.132 1427.94 611.398C1420.42 588.721 1390.23 580.137 1379.56 603.236C1365.73 633.106 1399.08 694.57 1414.09 723.585C1389.42 708.528 1355.37 685.361 1348.77 676.58C1334.42 657.476 1296.79 663.247 1296.43 688.69C1296.07 714.143 1336.81 774.195 1361.27 792.429C1367.82 797.33 1377.28 802.658 1388.35 807.893C1327.2 870.085 1294.52 934.674 1288.53 997.903C1271.68 997.762 1256.53 1000.33 1246.26 1004.65C1207.3 1021.07 1177.17 1087.68 1148.46 1077.48C1137.82 1073.71 1115.41 1031.4 1101.61 1008.96C1087.8 986.512 1031.44 1000.13 1047.84 1022.49C1064.23 1044.83 1105.21 1086.27 1127.31 1122.17C1149.39 1158.1 1155.1 1171.66 1175.28 1157.12C1195.47 1142.57 1221.28 1070.93 1268.47 1121.01C1274.71 1127.63 1268.55 1121.31 1274.67 1126.15C1273.57 1172.63 1314.06 1237.69 1364.96 1256.25C1410.11 1272.72 1492.08 1278.18 1510.42 1307.52C1517.21 1318.39 1510.6 1375.85 1507.8 1403.1C1504.99 1430.35 1563.27 1462.71 1563.74 1433.57C1564.22 1404.43 1555.84 1342.43 1560.32 1298.82C1564.69 1256.31 1561.22 1253.77 1536.17 1249.02C1540.42 1245.73 1551.68 1230.01 1555.16 1226.37C1570.5 1237.01 1594.41 1244.09 1626.69 1241.8C1676.33 1238.29 1657.75 1172.93 1640.2 1156.73C1626.08 1143.69 1589.92 1141.5 1567.97 1135.54C1560.6 1095.96 1557.09 1047.63 1561.69 1020.07C1571.73 959.908 1628.41 860.554 1649.7 808.622C1680.15 800.841 1723.54 793.471 1741.77 754.591C1745.49 746.653 1748.81 738.908 1751.6 731.346C1792.37 767.002 1827.29 811.736 1870.1 844.518C1924.94 886.523 1948.68 887.825 1988.39 892.742C2028.08 897.669 2019.99 870.554 2005.75 857.721C1995.78 848.731 1953.98 808.752 1917.04 773.648C1967.18 790.132 1996.72 786.716 2031.3 781.424Z" fill="white"/>
<path d="M2031.3 781.424C2070.69 775.398 2042.7 749.606 2025.5 741.158C2008.3 732.7 1896.11 674.257 1847.04 661.018C1815.13 652.408 1777.29 644.351 1748.64 641.215C1741.09 616.372 1728.2 601.465 1699.34 584.606C1669.6 567.231 1650.09 566.882 1631.96 557.507C1613.81 548.143 1602.77 527.174 1580.54 535.903C1552.15 547.054 1530.73 598.601 1524.68 607.106C1507.93 630.632 1504.18 648.143 1498.84 692.044C1498.35 696.012 1498.61 700.325 1499.41 704.762C1459.23 674.252 1440.46 649.132 1427.94 611.398C1420.42 588.721 1390.23 580.137 1379.56 603.236C1365.73 633.106 1399.08 694.57 1414.09 723.585C1389.42 708.528 1355.37 685.361 1348.77 676.58C1334.42 657.476 1296.79 663.247 1296.43 688.689C1296.07 714.143 1336.81 774.195 1361.27 792.429C1367.82 797.33 1377.28 802.658 1388.35 807.893C1327.2 870.085 1294.52 934.674 1288.53 997.903C1271.68 997.762 1256.53 1000.33 1246.26 1004.65C1207.3 1021.07 1177.17 1087.68 1148.46 1077.48C1137.82 1073.71 1115.41 1031.4 1101.61 1008.96C1087.8 986.512 1031.44 1000.13 1047.84 1022.49C1064.23 1044.83 1105.21 1086.27 1127.31 1122.17C1149.39 1158.1 1155.1 1171.66 1175.28 1157.12C1195.47 1142.57 1221.28 1070.93 1268.47 1121.01C1274.71 1127.63 1268.55 1121.31 1274.67 1126.15C1273.57 1172.63 1314.06 1237.69 1364.96 1256.25C1410.11 1272.72 1492.08 1278.18 1510.42 1307.52C1517.21 1318.39 1510.6 1375.85 1507.8 1403.1C1504.99 1430.35 1563.27 1462.71 1563.74 1433.57C1564.22 1404.43 1555.84 1342.43 1560.32 1298.82C1564.69 1256.31 1561.22 1253.77 1536.17 1249.02C1540.42 1245.73 1551.68 1230.01 1555.16 1226.37C1570.5 1237.01 1594.41 1244.09 1626.69 1241.8C1676.33 1238.29 1657.75 1172.93 1640.2 1156.73C1626.08 1143.69 1589.92 1141.5 1567.97 1135.54C1560.6 1095.96 1557.09 1047.63 1561.69 1020.07C1571.73 959.908 1628.41 860.554 1649.7 808.622C1680.15 800.84 1723.54 793.471 1741.77 754.59C1745.49 746.653 1748.81 738.908 1751.6 731.346C1792.37 767.002 1827.29 811.736 1870.1 844.518C1924.94 886.523 1948.68 887.825 1988.39 892.741C2028.08 897.669 2019.99 870.554 2005.75 857.721C1995.78 848.731 1953.98 808.752 1917.04 773.648C1967.18 790.132 1996.72 786.715 2031.3 781.424Z" stroke="#929496" stroke-width="11.736" stroke-linecap="round" stroke-linejoin="round"/>
<path d="M1731.46 676.028C1760.62 680.096 1837.87 699.268 1875.05 733.986C1912.22 768.7 1991.5 844.877 2005.75 857.721C2019.99 870.554 2028.08 897.669 1988.39 892.742C1948.68 887.825 1924.94 886.528 1870.1 844.518C1815.25 802.518 1773.39 740.814 1715.53 703.851" fill="white"/>
<path d="M1372.87 1026.57C1336.54 993.929 1273.83 993.038 1246.26 1004.65C1207.3 1021.07 1185.89 1087.52 1157.17 1077.31C1146.53 1073.54 1135.06 1029.05 1108.76 1002.96C1086.04 980.419 1031.44 1000.13 1047.84 1022.49C1064.23 1044.83 1105.21 1086.27 1127.31 1122.17C1149.39 1158.1 1155.1 1171.66 1175.28 1157.12C1195.47 1142.57 1221.28 1070.93 1268.47 1121.01C1296.57 1150.82 1322.24 1163.02 1357.82 1153.81" fill="white"/>
<path d="M1681.02 642.679C1676.15 649.101 1653.73 650.132 1645.41 640.424C1637.06 630.71 1635.82 615.731 1644.98 610.273C1652.13 606.002 1665.27 605.596 1675.57 613.179C1684.85 620.007 1687.49 634.189 1681.02 642.679Z" fill="#929496"/>
<path d="M1594.21 564.565C1585.13 564.565 1577.06 560.195 1573.29 553.08C1569.77 546.419 1570.73 538.83 1575.94 532.257C1577.96 529.721 1581.64 529.294 1584.18 531.304C1586.72 533.315 1587.15 537.007 1585.13 539.549C1582.86 542.424 1582.35 545.127 1583.66 547.585C1585.49 551.023 1590.34 553.169 1595.45 552.783C1598.69 552.565 1601.49 554.971 1601.73 558.205C1601.97 561.434 1599.54 564.247 1596.32 564.486C1595.61 564.538 1594.9 564.565 1594.21 564.565Z" fill="#929496"/>
<path d="M1583.77 623.747C1583.56 623.747 1583.33 623.736 1583.09 623.705C1552.77 620.19 1537.28 605.575 1535.72 579.023C1535.53 575.788 1537.99 573.012 1541.23 572.825C1544.48 572.632 1547.25 575.106 1547.44 578.341C1548.23 592.132 1553.17 608.424 1584.45 612.049C1587.66 612.424 1589.97 615.335 1589.6 618.554C1589.25 621.544 1586.72 623.747 1583.77 623.747Z" fill="#929496"/>
<path d="M986.739 1291.88L1015.92 1391.01C1014.81 1434.26 932.896 1469.34 830.484 1469.34C728.073 1469.34 645.052 1434.27 645.057 1391.01L674.229 1294.78L645.057 1097.49C645.057 1061.79 728.073 1032.04 830.484 1032.04C932.896 1032.04 1016.91 1058.81 1015.92 1097.49" fill="#DBA100"/>
<path d="M986.739 1291.88L1015.92 1391.01C1014.81 1434.26 932.896 1469.34 830.484 1469.34C728.073 1469.34 645.052 1434.27 645.057 1391.01L674.229 1294.78L645.057 1097.49C645.057 1061.79 728.073 1032.04 830.484 1032.04C932.896 1032.04 1016.91 1058.81 1015.92 1097.49L986.739 1291.88Z" stroke="#6C6E70" stroke-width="11.736" stroke-linecap="round" stroke-linejoin="round"/>
<path d="M830.484 1046.1C741.146 1046.1 668.724 1068.63 668.724 1095.67C668.724 1128.43 741.146 1155 830.484 1155C919.828 1155 991.281 1128.42 992.255 1095.67C993.119 1066.37 919.828 1046.1 830.484 1046.1Z" fill="#DBA100"/>
<path d="M830.484 1046.1C741.146 1046.1 668.724 1068.63 668.724 1095.67C668.724 1128.43 741.146 1155 830.484 1155C919.828 1155 991.281 1128.42 992.255 1095.67C993.119 1066.37 919.828 1046.1 830.484 1046.1Z" stroke="#6C6E70" stroke-width="11.736" stroke-linecap="round" stroke-linejoin="round"/>
<path d="M1539.85 444.08C1461.28 399.325 1366.7 303.538 1366.7 303.538C1350.66 291.299 1355.78 257.622 1378.13 228.346C1400.48 199.049 1431.61 185.226 1447.65 197.466C1447.65 197.466 1591.81 287.054 1639.18 319.091C1683.33 348.96 1705.8 380.596 1705.8 380.596C1718.98 399.273 1716.72 426.507 1694.37 455.799C1672.01 485.096 1640.89 498.919 1624.85 486.679C1624.85 486.679 1618.44 488.846 1539.85 444.08Z" fill="#DBA100"/>
<path d="M1539.85 444.08C1461.28 399.325 1366.7 303.538 1366.7 303.538C1350.66 291.299 1355.78 257.622 1378.13 228.346C1400.48 199.049 1431.61 185.226 1447.65 197.466C1447.65 197.466 1591.81 287.054 1639.18 319.091C1683.33 348.96 1705.8 380.596 1705.8 380.596C1718.98 399.273 1716.72 426.507 1694.37 455.799C1672.01 485.096 1640.89 498.919 1624.85 486.679C1624.85 486.679 1618.44 488.846 1539.85 444.08Z" stroke="#6C6E70" stroke-width="11.736" stroke-linecap="round" stroke-linejoin="round"/>
<path d="M1436.22 272.658C1413.87 301.95 1382.75 315.783 1366.7 303.544C1350.66 291.299 1355.78 257.622 1378.13 228.346C1400.48 199.049 1431.61 185.21 1447.65 197.466C1463.69 209.689 1458.57 243.372 1436.22 272.658Z" fill="#E8CC87"/>
<path d="M1436.22 272.658C1413.87 301.95 1382.75 315.783 1366.7 303.544C1350.66 291.299 1355.78 257.622 1378.13 228.346C1400.48 199.049 1431.61 185.21 1447.65 197.466C1463.69 209.689 1458.57 243.372 1436.22 272.658Z" stroke="#6C6E70" stroke-width="11.736" stroke-linecap="round" stroke-linejoin="round"/>
<path d="M1591.09 432.502C1602.16 441.887 1605.61 456.002 1598.81 464.002L1367.53 734.841C1360.73 742.841 1346.27 741.71 1335.2 732.304C1324.15 722.913 1320.69 708.809 1327.49 700.804L1558.75 429.976C1565.56 421.971 1580.04 423.106 1591.09 432.502Z" fill="#DBA100"/>
<path d="M1591.09 432.502C1602.16 441.887 1605.61 456.002 1598.81 464.002L1367.53 734.841C1360.73 742.841 1346.27 741.71 1335.2 732.304C1324.15 722.913 1320.69 708.809 1327.49 700.804L1558.75 429.976C1565.56 421.971 1580.04 423.106 1591.09 432.502Z" stroke="#6C6E70" stroke-width="11.736" stroke-linecap="round" stroke-linejoin="round"/>
<path d="M1417.34 218.663C1392.81 210.492 1360.82 226.424 1338.99 238.252C1318.98 249.091 1256.9 294.518 1236.89 321.601C1218.4 346.637 1234.64 342.387 1248.14 330.356C1263.28 316.856 1285.65 298.679 1298.16 299.174C1320.72 300.075 1266.74 347.788 1248.01 369.387C1215.41 407.007 1085.6 566.252 1050.79 627.747C975.557 760.643 898.01 900.804 880.458 950.96C878.547 956.413 877.312 961.387 876.583 965.945C870.416 982.721 863.823 1001.57 859.989 1008.19C848.224 1028.49 840.51 1046.67 821.536 1061.54C807.864 1072.26 786.906 1066.85 770.713 1070.66C750.833 1075.35 728.771 1080.01 711.739 1092.73C696.119 1104.4 696.135 1125.07 712.432 1134.2C733.224 1145.85 752.807 1162.01 773.963 1173.84L903.869 1168.88C919.823 1163.59 943.479 1167.29 957.224 1154.01C970.047 1141.62 960.5 1121.37 949.682 1111.31C939.067 1101.46 929.432 1092.77 916.317 1085.61C897.859 1075.52 895.104 1067.48 895.937 1045.92C896.802 1023.49 909.812 1002.43 910.708 980.768C948.135 871.518 1014.03 742.346 1038.34 693.893C1084.07 602.773 1242.22 398.476 1280.61 369.387C1324.45 336.179 1366.89 323.439 1388.44 316.731C1410.27 309.934 1434.23 288.32 1441.93 261.169C1449.85 233.252 1432.35 223.663 1417.34 218.663Z" fill="white"/>
<path d="M1417.34 218.663C1392.81 210.492 1360.82 226.424 1338.99 238.252C1318.98 249.091 1256.9 294.518 1236.89 321.601C1218.4 346.637 1234.64 342.387 1248.14 330.356C1263.28 316.856 1285.65 298.679 1298.16 299.174C1320.72 300.075 1266.74 347.788 1248.01 369.387C1215.41 407.007 1085.6 566.252 1050.79 627.747C975.557 760.643 898.01 900.804 880.458 950.96C878.547 956.413 877.312 961.387 876.583 965.945C870.416 982.721 863.823 1001.57 859.989 1008.19C848.224 1028.49 840.51 1046.67 821.536 1061.54C807.864 1072.26 786.906 1066.85 770.713 1070.66C750.833 1075.35 728.771 1080.01 711.739 1092.73C696.119 1104.4 696.135 1125.07 712.432 1134.2C733.224 1145.85 752.807 1162.01 773.963 1173.84L903.87 1168.88C919.823 1163.59 943.479 1167.29 957.224 1154.01C970.047 1141.62 960.5 1121.37 949.682 1111.31C939.067 1101.46 929.432 1092.77 916.317 1085.61C897.859 1075.52 895.104 1067.48 895.937 1045.92C896.802 1023.49 909.812 1002.43 910.708 980.768C948.135 871.518 1014.03 742.346 1038.34 693.893C1084.07 602.773 1242.22 398.476 1280.61 369.387C1324.45 336.179 1366.89 323.439 1388.44 316.731C1410.27 309.934 1434.23 288.32 1441.93 261.169C1449.85 233.252 1432.35 223.663 1417.34 218.663Z" stroke="#D0D2D3" stroke-width="7.39467" stroke-linecap="round" stroke-linejoin="round"/>
<path d="M668.724 1095.67C668.724 1128.43 741.146 1155 830.484 1155C919.828 1155 991.281 1128.42 992.255 1095.67L1015.92 1097.49C1014.81 1140.74 932.896 1175.82 830.484 1175.82C728.073 1175.82 645.052 1140.75 645.057 1097.49" fill="#DBA100"/>
<path d="M830.484 1180.54C780.338 1180.54 733.119 1172.26 697.526 1157.23C660.651 1141.64 640.333 1120.43 640.333 1097.49C640.333 1094.88 642.448 1092.77 645.057 1092.77C647.661 1092.77 649.771 1094.88 649.771 1097.49C649.765 1116.12 668.515 1134.73 701.198 1148.53C735.651 1163.09 781.567 1171.11 830.484 1171.11C929.088 1171.11 1010.16 1138.03 1011.2 1097.36C1011.27 1094.75 1013.57 1092.64 1016.04 1092.77C1018.65 1092.84 1020.7 1095 1020.64 1097.61C1019.44 1144.12 935.916 1180.54 830.484 1180.54Z" fill="#6C6E70"/>
<path d="M830.484 1159.72C786.729 1159.72 745.541 1153.44 714.479 1142.05C681.927 1130.11 664.005 1113.64 664.005 1095.67C664.005 1093.06 666.119 1090.95 668.724 1090.95C671.328 1090.95 673.442 1093.06 673.442 1095.67C673.437 1109.19 689.578 1122.87 717.724 1133.19C747.771 1144.22 787.817 1150.28 830.484 1150.28C923.458 1150.28 986.755 1121.97 987.536 1095.52C987.609 1092.92 989.776 1090.91 992.396 1090.95C994.994 1091.02 997.047 1093.19 996.968 1095.8C995.911 1131.65 922.781 1159.72 830.484 1159.72Z" fill="#6C6E70"/>
<path d="M1512.4 757.038C1425.84 745.419 1363.11 695.679 1348.77 676.58C1334.42 657.476 1296.79 663.247 1296.43 688.69C1296.07 714.148 1336.81 774.195 1361.25 792.429C1385.69 810.663 1449.93 834.815 1491.02 838.596" fill="white"/>
<path d="M519.338 1052.12C592.791 1055.99 648.838 1093.47 662.182 1108.53C675.526 1123.59 706.734 1116.18 705.291 1094.8C703.864 1073.4 665.573 1025.77 643.812 1012.13C622.057 998.476 566.479 982.575 531.729 982.2" fill="white"/>
<path d="M519.338 1052.12C592.791 1055.99 648.838 1093.47 662.182 1108.53C675.526 1123.59 706.734 1116.18 705.291 1094.8C703.864 1073.4 665.573 1025.77 643.812 1012.13C622.057 998.476 566.479 982.575 531.729 982.2L519.338 1052.12Z" stroke="#929496" stroke-width="9.884" stroke-linecap="round" stroke-linejoin="round"/>
<path d="M665.396 1052.92C648.297 1047.3 597.755 1055.25 580.343 1056.66C564.521 1057.93 554.651 1025.5 542.619 1005.27C545.036 1001.29 547.312 997.497 549.453 993.887C590.052 1022.53 677.927 1010.79 706.411 982.955C722.651 967.096 715.708 950.038 710.896 931.778C706.083 913.518 713.224 858.325 692.255 812.096C677.849 780.315 652.255 763.69 618.385 760.19C609.047 728.57 587.875 671.726 558.76 646.221C524.807 616.481 449.859 559.351 437.255 547.908C424.656 536.466 388.135 525.153 396.031 559.627C402.531 588.023 400.432 621.929 422.922 657.955C389.661 644.127 358.052 631.32 349.453 627.059C334.208 619.481 295.984 618.679 313.01 649.846C330.041 681.007 337.083 723.559 389.666 755.117C419.364 772.945 461.63 788.596 497.062 799.986C490.484 804.887 484.599 809.533 479.734 813.382C470.505 820.705 467.182 838.46 469.937 860.747C430.146 884.846 382.244 926.591 335.536 940.346C244.781 967.059 192.338 1004.28 165.77 1036.97C140.864 1020.56 96.083 1007.62 89.2861 1027.55C80.5153 1053.3 78.359 1093.51 99.9163 1102.34C113.588 1107.94 126.198 1110.22 136.875 1110.86C136.875 1113.89 137.057 1116.89 137.39 1119.85C116.317 1188.31 250.161 1278.05 253.192 1288.53C256.442 1299.72 213.875 1337.08 204.166 1349.6C194.453 1362.11 190.39 1395.85 227.338 1393.64C243.984 1392.63 364.057 1403.28 375.672 1389C387.312 1374.72 370.203 1355.92 350.182 1349.6C335.635 1345.01 299.854 1343.81 279.276 1345.88C305.38 1329.82 352.01 1295.37 356.797 1284.35C356.953 1283.99 357.073 1283.61 357.224 1283.25C392.286 1290.28 420.213 1292.85 422.619 1297.39C428.078 1307.68 403.494 1337.68 396.536 1351.91C389.578 1366.15 394.218 1377.41 428.984 1382.05C445.51 1384.25 573.489 1396.08 581.953 1379.73C590.437 1363.37 569.698 1331.31 548.812 1329.2C527.906 1327.09 482.396 1335.57 477.557 1328.92C472.708 1322.26 507.39 1268.29 504.354 1250.12C501.323 1231.96 483.442 1203.2 468.005 1188.98C460.224 1181.81 443.468 1168.9 422.77 1157.66C437.515 1146.03 450.817 1133.19 462.119 1119.76C469.369 1111.13 476.448 1102.21 483.291 1093.18C511.979 1113.85 566.494 1130.68 579.286 1130.36C595.021 1129.97 651.578 1114 666.661 1116.28C681.744 1118.57 703.817 1109.78 711.109 1091.66C718.411 1073.55 682.505 1058.55 665.396 1052.92Z" fill="white"/>
<path d="M665.396 1052.92C648.297 1047.3 597.755 1055.25 580.343 1056.66C564.521 1057.93 554.651 1025.5 542.619 1005.27C545.036 1001.29 547.312 997.497 549.453 993.887C590.052 1022.53 677.927 1010.79 706.411 982.955C722.651 967.096 715.708 950.038 710.896 931.778C706.083 913.518 713.224 858.325 692.255 812.096C677.849 780.314 652.255 763.689 618.385 760.189C609.047 728.57 587.875 671.726 558.76 646.221C524.807 616.481 449.859 559.351 437.255 547.908C424.656 536.466 388.135 525.153 396.031 559.627C402.531 588.023 400.432 621.929 422.922 657.955C389.661 644.127 358.052 631.32 349.453 627.059C334.208 619.481 295.984 618.679 313.01 649.846C330.041 681.007 337.083 723.559 389.666 755.117C419.364 772.945 461.63 788.596 497.062 799.986C490.484 804.887 484.599 809.533 479.734 813.382C470.505 820.705 467.182 838.46 469.937 860.747C430.146 884.846 382.244 926.591 335.536 940.346C244.781 967.059 192.338 1004.28 165.77 1036.97C140.864 1020.56 96.083 1007.62 89.2861 1027.55C80.5153 1053.3 78.359 1093.51 99.9163 1102.34C113.588 1107.94 126.198 1110.22 136.875 1110.86C136.875 1113.89 137.057 1116.89 137.39 1119.85C116.317 1188.31 250.161 1278.05 253.192 1288.53C256.442 1299.72 213.875 1337.08 204.166 1349.6C194.453 1362.11 190.39 1395.85 227.338 1393.64C243.984 1392.63 364.057 1403.28 375.672 1389C387.312 1374.72 370.203 1355.92 350.182 1349.6C335.635 1345.01 299.854 1343.81 279.276 1345.88C305.38 1329.82 352.01 1295.37 356.797 1284.35C356.953 1283.99 357.073 1283.61 357.224 1283.25C392.286 1290.28 420.213 1292.85 422.619 1297.39C428.078 1307.68 403.494 1337.68 396.536 1351.91C389.578 1366.15 394.218 1377.41 428.984 1382.05C445.51 1384.25 573.489 1396.08 581.953 1379.73C590.437 1363.37 569.698 1331.31 548.812 1329.2C527.906 1327.09 482.396 1335.57 477.557 1328.92C472.708 1322.26 507.39 1268.29 504.354 1250.12C501.323 1231.96 483.442 1203.2 468.005 1188.98C460.224 1181.81 443.468 1168.9 422.771 1157.66C437.515 1146.03 450.817 1133.19 462.119 1119.76C469.369 1111.13 476.448 1102.21 483.291 1093.18C511.979 1113.85 566.494 1130.68 579.286 1130.36C595.021 1129.97 651.578 1114 666.661 1116.28C681.744 1118.57 703.817 1109.78 711.109 1091.66C718.411 1073.55 682.505 1058.55 665.396 1052.92Z" stroke="#929496" stroke-width="11.736" stroke-linecap="round" stroke-linejoin="round"/>
<path d="M322.791 1402.37C305.005 1402.37 283.078 1401.62 256.812 1400.41C243.317 1399.79 231.656 1399.25 227.692 1399.49C207.614 1400.71 198.817 1392.25 194.963 1384.95C188.463 1372.62 192.182 1355.47 199.531 1346C202.619 1342.02 208.484 1336.03 215.27 1329.09C225.494 1318.64 246.52 1297.16 247.468 1290.33C245.395 1287.73 237.468 1280.87 229.786 1274.22C187.604 1237.71 99.833 1161.75 139.02 1102.98C140.817 1100.28 144.458 1099.55 147.156 1101.35C149.854 1103.15 150.583 1106.79 148.786 1109.49C115.338 1159.65 197.823 1231.04 237.463 1265.34C253.13 1278.9 257.698 1282.98 258.828 1286.9C261.849 1297.3 247.557 1312.88 223.656 1337.3C217.395 1343.7 211.479 1349.74 208.802 1353.19C203.927 1359.48 201.307 1371.81 205.349 1379.47C208.604 1385.65 215.89 1388.45 226.989 1387.78C231.573 1387.5 242.385 1388 257.354 1388.68C277.395 1389.61 304.849 1390.87 327.906 1390.61C364.614 1390.19 370.364 1386.09 371.145 1385.27C373.515 1382.36 374.156 1379.18 373.083 1375.58C370.672 1367.52 360.297 1358.95 348.411 1355.19C334.052 1350.66 300.276 1349.94 281.26 1351.55C273.177 1356.43 265.989 1360.12 262.645 1360.15C262.614 1360.15 262.588 1360.15 262.557 1360.15C259.885 1360.15 257.573 1358.73 256.505 1356.42C254.494 1352.06 257.942 1348.11 260.005 1345.74C261.015 1344.58 263.484 1341.75 277.39 1340.16C285.474 1335.13 296.213 1327.95 308.635 1318.92C335.489 1299.4 349.635 1286.11 351.416 1282.01C362.567 1256.32 358.515 1217.44 347.729 1202.36C345.843 1199.73 346.448 1196.06 349.083 1194.17C351.718 1192.28 355.385 1192.9 357.27 1195.53C370.343 1213.79 375.218 1256.66 362.182 1286.68C357.755 1296.87 330.13 1317.87 314.057 1329.49C311.135 1331.6 306.208 1335.12 300.494 1339.03C301.015 1339.03 301.541 1339.03 302.067 1339.03C318.619 1339.03 340.333 1340.34 351.948 1344C367.76 1349 380.77 1360.34 384.328 1372.22C386.505 1379.51 385.047 1386.78 380.224 1392.71C374.463 1399.79 355.729 1402.37 322.791 1402.37Z" fill="#929496"/>
<path d="M557.942 823.622C557.442 823.622 556.937 823.559 556.427 823.424C480.776 803.288 422.067 781.408 386.646 760.148C344.505 734.861 330.656 703.132 318.437 675.143C314.942 667.137 311.64 659.57 307.859 652.658C299.526 637.398 303.135 628.627 307.625 623.955C317.396 613.794 340.093 615.851 352.067 621.799C358.229 624.861 377.479 632.809 399.765 642.018C431.864 655.278 471.812 671.778 495.781 683.143C545.989 706.945 593.666 790.393 594.14 791.231C595.739 794.054 594.744 797.632 591.927 799.231C589.104 800.825 585.526 799.835 583.927 797.012C571.203 774.549 529.666 712.195 490.755 693.747C467.052 682.512 427.26 666.07 395.286 652.867C371.869 643.19 353.375 635.549 346.849 632.315C337.692 627.762 321.13 626.841 316.088 632.091C312.875 635.424 315.442 642.054 318.161 647.033C322.187 654.403 325.588 662.195 329.192 670.45C340.708 696.825 353.76 726.726 392.682 750.085C426.682 770.492 485.911 792.512 559.448 812.085C562.578 812.919 564.442 816.132 563.609 819.262C562.911 821.887 560.536 823.622 557.942 823.622Z" fill="#929496"/>
<path d="M601.765 871.846C595.609 877.064 595.771 899.502 605.911 907.304C616.052 915.106 631.078 915.564 636.047 906.127C639.932 898.747 639.635 885.611 631.51 875.721C624.198 866.814 609.896 864.95 601.765 871.846Z" fill="#929496"/>
<path d="M704.401 976.341C701.896 976.341 699.385 975.788 696.963 974.669C689.099 971.023 684.146 962.236 684.349 952.283C684.416 949.038 687.088 946.476 690.333 946.533C693.573 946.601 696.151 949.278 696.083 952.518C695.979 957.658 698.37 962.382 701.901 964.018C704.422 965.189 707.093 964.554 709.838 962.127C712.265 959.981 715.974 960.21 718.12 962.637C720.265 965.07 720.036 968.778 717.604 970.919C713.552 974.502 708.979 976.341 704.401 976.341Z" fill="#929496"/>
<path d="M665.515 1007.18C651.151 1007.18 632.286 1006.07 625.911 968.632C625.369 965.439 627.515 962.403 630.713 961.861C633.901 961.325 636.937 963.465 637.484 966.663C642.39 995.497 653.166 995.481 666.833 995.439C667.646 995.439 668.453 995.434 669.255 995.439C672.494 995.455 675.109 998.096 675.093 1001.34C675.078 1004.57 672.453 1007.17 669.224 1007.17H669.198C668.422 1007.17 667.646 1007.17 666.864 1007.17C666.422 1007.18 665.968 1007.18 665.515 1007.18Z" fill="#929496"/>
<path d="M1997.04 899.189C1994.22 899.189 1991.1 898.992 1987.66 898.564L1982.6 897.945C1945.06 893.361 1920.27 890.335 1866.53 849.179C1841.75 830.21 1819.4 807.07 1797.77 784.695C1771.28 757.278 1743.89 728.929 1712.37 708.794C1709.64 707.049 1708.85 703.419 1710.6 700.689C1712.33 697.96 1715.97 697.158 1718.69 698.903C1751.37 719.783 1779.25 748.637 1806.21 776.538C1827.54 798.606 1849.6 821.424 1873.66 839.861C1924.86 879.075 1947.13 881.794 1984.01 886.294L1989.1 886.919C2000.94 888.393 2009.13 886.788 2011.04 882.637C2013.18 877.924 2008.97 868.512 2001.82 862.075C1994.52 855.492 1970.93 833.028 1943.61 807.023C1918.16 782.788 1889.3 755.314 1871.05 738.273C1835.99 705.538 1761.32 686.117 1730.65 681.841C1727.44 681.393 1725.2 678.424 1725.65 675.216C1726.09 672.007 1729.05 669.773 1732.27 670.216C1757.61 673.747 1838.97 692.262 1879.06 729.695C1897.35 746.778 1926.22 774.273 1951.7 798.523C1977.82 823.393 2002.49 846.882 2009.68 853.356C2019.41 862.117 2026.66 876.663 2021.7 887.518C2019.16 893.106 2012.75 899.189 1997.04 899.189Z" fill="#929496"/>
<path d="M1161.74 1168.75C1160.55 1168.75 1159.36 1168.63 1158.18 1168.39C1147.23 1166.17 1140.17 1154.56 1127.34 1133.49C1125.76 1130.89 1124.09 1128.14 1122.31 1125.25C1108.5 1102.81 1086.58 1077.48 1068.97 1057.12C1058.37 1044.86 1049.21 1034.28 1043.11 1025.96C1036.41 1016.82 1037.93 1006.24 1047.1 998.346C1062.94 984.7 1095.82 981.856 1112.89 998.794C1128.08 1013.87 1138.21 1034.12 1146.34 1050.39C1150.58 1058.88 1156.39 1070.49 1159.17 1071.8C1170.76 1075.92 1182.85 1060.56 1196.86 1042.78C1209.95 1026.17 1224.78 1007.34 1243.98 999.247C1259.52 992.7 1283.66 990.382 1306.98 993.19C1326.74 995.575 1354.9 1002.54 1376.8 1022.21C1379.21 1024.38 1379.41 1028.09 1377.23 1030.5C1375.08 1032.91 1371.37 1033.11 1368.96 1030.94C1332.82 998.481 1272.28 1000.06 1248.54 1010.06C1232.12 1016.98 1218.29 1034.54 1206.08 1050.05C1189.97 1070.49 1174.77 1089.79 1155.2 1082.85C1148.21 1080.36 1143.29 1070.53 1135.84 1055.64C1128.09 1040.14 1118.45 1020.84 1104.62 1007.13C1091.44 994.038 1065.28 998.174 1054.76 1007.24C1048.87 1012.3 1050.5 1016.19 1052.57 1019.02C1058.4 1026.96 1067.41 1037.37 1077.84 1049.44C1095.73 1070.12 1118 1095.85 1132.31 1119.1C1134.1 1122.01 1135.78 1124.78 1137.37 1127.39C1147.74 1144.43 1154.59 1155.68 1160.51 1156.88C1163.17 1157.42 1166.88 1155.94 1171.85 1152.36C1176.14 1149.26 1181.37 1142.3 1186.91 1134.93C1199 1118.84 1214.06 1098.81 1234.71 1097.66C1247.37 1096.94 1259.82 1103.28 1272.74 1116.99C1301.52 1147.52 1324.96 1156.25 1356.34 1148.13C1359.49 1147.32 1362.69 1149.21 1363.5 1152.34C1364.32 1155.48 1362.42 1158.68 1359.29 1159.49C1323.54 1168.75 1295.98 1158.76 1264.2 1125.03C1253.95 1114.15 1244.24 1108.88 1235.36 1109.38C1220.16 1110.23 1207.48 1127.1 1196.29 1141.98C1189.94 1150.44 1184.45 1157.74 1178.71 1161.88C1172.24 1166.54 1166.85 1168.75 1161.74 1168.75Z" fill="#929496"/>
<path d="M1491.04 844.466C1490.85 844.466 1490.66 844.455 1490.49 844.439C1446.66 840.403 1382.04 815.257 1357.74 797.132C1333.37 778.945 1290.16 717.273 1290.56 688.611C1290.74 675.799 1298.66 665.606 1311.75 661.335C1327.31 656.268 1344.46 661.08 1353.46 673.054C1366.11 689.898 1427.49 739.715 1513.18 751.226C1516.4 751.658 1518.65 754.611 1518.22 757.825C1517.78 761.033 1514.84 763.283 1511.62 762.856C1423.94 751.085 1359.85 701.096 1344.08 680.106C1337.35 671.158 1324.56 669.507 1315.39 672.497C1311.5 673.762 1302.45 677.882 1302.3 688.773C1301.98 711.632 1340.75 769.809 1364.77 787.726C1387.72 804.851 1450.73 828.992 1491.56 832.752C1494.78 833.049 1497.17 835.908 1496.86 839.132C1496.58 842.179 1494.02 844.466 1491.04 844.466Z" fill="#929496"/>
</svg>
