<svg width="2134" height="1600" viewBox="0 0 2134 1600" fill="none" xmlns="http://www.w3.org/2000/svg">
<g clip-path="url(#clip0_486_411)">
<path d="M1791.46 310.726C1813.66 277.638 1775.73 280.808 1757.88 287.763C1740.01 294.71 1621.08 337.811 1578.14 364.998C1550.22 382.677 1518.69 405.098 1497 424.08C1473.59 412.836 1453.9 412.248 1421.96 422.1C1389.04 432.252 1375.59 446.386 1356.42 453.398C1337.25 460.433 1314.34 454.38 1305.73 476.658C1294.74 505.111 1318.22 555.754 1320.39 565.962C1326.39 594.212 1336.75 608.819 1365.47 642.446C1368.06 645.491 1371.42 648.217 1375.22 650.629C1325.58 659.586 1294.38 656.42 1258.12 640.118C1236.33 630.318 1209.58 646.748 1219.38 670.231C1232.03 700.621 1299.85 717.632 1331.38 726.202C1303.6 734.188 1263.51 743.597 1252.58 742.519C1228.8 740.166 1207.6 771.785 1226.09 789.26C1244.6 806.742 1316.38 817.354 1346.36 811.672C1354.4 810.163 1364.72 806.799 1376.06 802.186C1380.51 889.292 1405.98 957.05 1448.5 1004.23C1436.99 1016.55 1428.64 1029.44 1424.87 1039.93C1410.61 1079.73 1439.3 1146.98 1412.36 1161.22C1402.39 1166.51 1356.07 1154.4 1330.21 1149.38C1304.33 1144.37 1276.24 1195.09 1303.8 1198.14C1331.34 1201.18 1389.58 1199.02 1430.97 1207.03C1472.37 1215.07 1486.22 1220.03 1489.16 1195.34C1492.1 1170.62 1456.79 1103.16 1525.6 1102.27C1534.7 1102.16 1525.87 1102.42 1533.58 1101.18C1567.07 1133.43 1642.38 1147.62 1690.47 1122.68C1733.14 1100.57 1792.61 1043.89 1826.63 1050.22C1839.22 1052.58 1877.07 1096.31 1895.25 1116.8C1913.42 1137.31 1976.68 1116.27 1955.53 1096.21C1934.39 1076.15 1883.06 1040.38 1853.97 1007.59C1825.62 975.614 1821.4 976.451 1800.96 991.689C1801.41 986.333 1797.44 967.407 1797.12 962.381C1815.33 958.28 1836.72 945.458 1856.86 920.134C1887.86 881.198 1827.15 850.674 1803.35 852.642C1784.19 854.222 1758.12 879.374 1738.88 891.509C1704.75 870.166 1666.77 840.061 1649.59 818.031C1612.07 769.943 1577.23 660.993 1553.38 610.186C1568.24 582.495 1592.16 545.552 1575.86 505.826C1572.53 497.717 1569.07 490.033 1565.39 482.863C1619.22 476.952 1675.79 481.49 1728.89 472.133C1796.93 460.153 1813.94 443.549 1844.42 417.627C1874.9 391.726 1849.46 379.344 1830.37 381.152C1817.01 382.415 1759.29 386.16 1708.45 389.624C1754.5 363.843 1771.97 339.775 1791.46 310.726Z" fill="white"/>
<path d="M1791.46 310.726C1813.66 277.638 1775.73 280.808 1757.88 287.763C1740.01 294.71 1621.08 337.811 1578.14 364.998C1550.22 382.678 1518.69 405.098 1497 424.079C1473.59 412.836 1453.9 412.247 1421.96 422.1C1389.04 432.252 1375.59 446.386 1356.42 453.398C1337.25 460.433 1314.34 454.38 1305.73 476.658C1294.74 505.111 1318.22 555.754 1320.39 565.962C1326.39 594.212 1336.75 608.819 1365.47 642.446C1368.06 645.491 1371.42 648.217 1375.22 650.629C1325.58 659.586 1294.38 656.42 1258.12 640.118C1236.33 630.318 1209.58 646.748 1219.38 670.231C1232.03 700.621 1299.85 717.632 1331.38 726.202C1303.6 734.188 1263.51 743.597 1252.58 742.519C1228.8 740.166 1207.6 771.785 1226.09 789.259C1244.6 806.742 1316.38 817.354 1346.36 811.672C1354.4 810.163 1364.72 806.799 1376.06 802.186C1380.51 889.292 1405.98 957.05 1448.5 1004.23C1436.99 1016.55 1428.64 1029.44 1424.87 1039.93C1410.61 1079.73 1439.3 1146.98 1412.36 1161.22C1402.39 1166.51 1356.07 1154.4 1330.21 1149.38C1304.33 1144.37 1276.24 1195.09 1303.8 1198.14C1331.34 1201.18 1389.58 1199.02 1430.97 1207.03C1472.37 1215.07 1486.22 1220.03 1489.16 1195.34C1492.1 1170.62 1456.79 1103.16 1525.6 1102.27C1534.7 1102.16 1525.87 1102.42 1533.58 1101.18C1567.07 1133.43 1642.38 1147.62 1690.47 1122.68C1733.14 1100.57 1792.61 1043.89 1826.63 1050.22C1839.22 1052.58 1877.07 1096.31 1895.25 1116.8C1913.42 1137.31 1976.68 1116.27 1955.53 1096.21C1934.39 1076.15 1883.06 1040.38 1853.97 1007.59C1825.62 975.614 1821.4 976.451 1800.96 991.689C1801.41 986.333 1797.44 967.407 1797.12 962.381C1815.33 958.28 1836.72 945.458 1856.86 920.134C1887.86 881.198 1827.15 850.674 1803.35 852.642C1784.19 854.222 1758.12 879.374 1738.88 891.509C1704.75 870.166 1666.77 840.061 1649.59 818.031C1612.07 769.943 1577.23 660.993 1553.38 610.186C1568.24 582.494 1592.16 545.552 1575.86 505.826C1572.53 497.717 1569.07 490.033 1565.39 482.863C1619.22 476.952 1675.79 481.49 1728.89 472.133C1796.93 460.153 1813.94 443.549 1844.42 417.626C1874.9 391.726 1849.46 379.344 1830.37 381.152C1817.01 382.415 1759.29 386.16 1708.45 389.624C1754.5 363.843 1771.97 339.775 1791.46 310.726Z" stroke="#929496" stroke-width="11.736" stroke-linecap="round" stroke-linejoin="round"/>
<path d="M1511.02 460.279C1533.74 441.553 1600.11 397.623 1650.83 393.722C1701.54 389.825 1811.27 382.959 1830.37 381.151C1849.45 379.343 1874.9 391.725 1844.42 417.625C1813.94 443.547 1796.93 460.155 1728.89 472.132C1660.86 484.122 1587.1 473.217 1520.73 490.831" fill="white"/>
<path d="M1526.66 961.499C1478.04 966.179 1434.97 1011.76 1424.87 1039.92C1410.62 1079.73 1445.08 1140.44 1418.13 1154.69C1408.16 1159.98 1367.63 1138.33 1330.62 1140.06C1298.65 1141.54 1276.24 1195.09 1303.8 1198.14C1331.34 1201.17 1389.58 1199.02 1430.97 1207.03C1472.37 1215.07 1486.22 1220.03 1489.16 1195.33C1492.1 1170.62 1456.79 1103.16 1525.6 1102.27C1566.56 1101.74 1592.91 1091.08 1610.19 1058.65" fill="white"/>
<path d="M1452.34 474.872C1453.78 482.803 1439.37 500.014 1426.59 499.575C1413.79 499.155 1401.92 489.936 1404.09 479.498C1405.78 471.343 1414.37 461.39 1426.93 458.933C1438.23 456.716 1450.46 464.364 1452.34 474.872Z" fill="#929496"/>
<path d="M1336.09 485.975C1329.95 492.663 1321.27 495.65 1313.48 493.615C1306.19 491.702 1301.25 485.862 1299.93 477.578C1299.43 474.375 1301.61 471.376 1304.81 470.865C1308.01 470.354 1311.02 472.535 1311.52 475.742C1312.1 479.358 1313.75 481.562 1316.45 482.26C1320.22 483.238 1325.08 481.117 1328.25 477.092C1330.28 474.558 1333.95 474.123 1336.49 476.134C1339.03 478.141 1339.46 481.834 1337.46 484.367C1337.02 484.925 1336.55 485.467 1336.09 485.975Z" fill="#929496"/>
<path d="M1372.62 533.695C1372.47 533.85 1372.31 534.012 1372.12 534.168C1349.03 554.122 1327.79 555.645 1307.17 538.834C1304.66 536.786 1304.28 533.097 1306.34 530.584C1308.39 528.06 1312.09 527.693 1314.6 529.741C1325.29 538.487 1340.63 545.869 1364.46 525.282C1366.91 523.171 1370.61 523.439 1372.73 525.889C1374.7 528.169 1374.61 531.522 1372.62 533.695Z" fill="#929496"/>
<path d="M986.741 1291.88L1015.92 1391.01C1014.81 1434.26 932.898 1469.34 830.486 1469.34C728.075 1469.34 645.054 1434.27 645.059 1391.01L674.231 1294.78L645.059 1097.49C645.059 1061.79 728.075 1032.04 830.486 1032.04C932.898 1032.04 1016.91 1058.81 1015.92 1097.49" fill="#DBA100"/>
<path d="M986.741 1291.88L1015.92 1391.01C1014.81 1434.26 932.898 1469.34 830.486 1469.34C728.075 1469.34 645.054 1434.27 645.059 1391.01L674.231 1294.78L645.059 1097.49C645.059 1061.79 728.075 1032.04 830.486 1032.04C932.898 1032.04 1016.91 1058.81 1015.92 1097.49L986.741 1291.88Z" stroke="#6C6E70" stroke-width="11.736" stroke-linecap="round" stroke-linejoin="round"/>
<path d="M830.483 1046.1C741.145 1046.1 668.723 1068.63 668.723 1095.67C668.723 1128.43 741.145 1155 830.483 1155C919.827 1155 991.28 1128.42 992.254 1095.67C993.118 1066.37 919.827 1046.1 830.483 1046.1Z" fill="#DBA100"/>
<path d="M830.483 1046.1C741.145 1046.1 668.723 1068.63 668.723 1095.67C668.723 1128.43 741.145 1155 830.483 1155C919.827 1155 991.28 1128.42 992.254 1095.67C993.118 1066.37 919.827 1046.1 830.483 1046.1Z" stroke="#6C6E70" stroke-width="11.736" stroke-linecap="round" stroke-linejoin="round"/>
<path d="M1210.57 444.518C1124.47 472.116 989.942 476.987 989.942 476.987C970.078 480.523 948.737 453.973 942.292 417.709C935.831 381.431 946.706 349.153 966.571 345.618C966.571 345.618 1130.07 300.036 1185.7 286.816C1237.57 274.501 1276.06 279.35 1276.06 279.35C1298.74 282.275 1317.27 302.361 1323.72 338.635C1330.18 374.921 1319.31 407.192 1299.44 410.726C1299.44 410.726 1296.7 416.913 1210.57 444.518Z" fill="#DBA100"/>
<path d="M1210.57 444.518C1124.47 472.116 989.942 476.987 989.942 476.987C970.078 480.523 948.737 453.973 942.292 417.709C935.831 381.431 946.706 349.153 966.571 345.618C966.571 345.618 1130.07 300.036 1185.7 286.816C1237.57 274.501 1276.06 279.35 1276.06 279.35C1298.74 282.275 1317.27 302.361 1323.72 338.635C1330.18 374.921 1319.31 407.192 1299.44 410.726C1299.44 410.726 1296.7 416.913 1210.57 444.518Z" stroke="#6C6E70" stroke-width="11.736" stroke-linecap="round" stroke-linejoin="round"/>
<path d="M1014.22 404.895C1020.68 441.169 1009.82 473.447 989.948 476.99C970.079 480.522 948.738 453.971 942.293 417.708C935.832 381.43 946.695 349.141 966.572 345.616C986.424 342.07 1007.77 368.624 1014.22 404.895Z" fill="#E8CC87"/>
<path d="M1014.22 404.895C1020.68 441.169 1009.82 473.447 989.948 476.99C970.079 480.522 948.738 453.971 942.293 417.708C935.832 381.43 946.695 349.141 966.572 345.616C986.424 342.07 1007.77 368.624 1014.22 404.895Z" stroke="#6C6E70" stroke-width="11.736" stroke-linecap="round" stroke-linejoin="round"/>
<path d="M1236.71 398.945C1251.11 397.14 1263.84 404.146 1265.13 414.566L1308.17 768.107C1309.47 778.526 1298.85 788.412 1284.44 790.203C1270.05 791.99 1257.32 784.998 1256.02 774.575L1212.97 421.056C1211.68 410.626 1222.31 400.729 1236.71 398.945Z" fill="#DBA100"/>
<path d="M1236.71 398.945C1251.11 397.14 1263.84 404.146 1265.13 414.566L1308.17 768.107C1309.47 778.526 1298.85 788.412 1284.44 790.203C1270.05 791.99 1257.32 784.998 1256.02 774.575L1212.97 421.056C1211.68 410.626 1222.31 400.729 1236.71 398.945Z" stroke="#6C6E70" stroke-width="11.736" stroke-linecap="round" stroke-linejoin="round"/>
<path d="M975.49 391.334C950.064 386.641 920.59 406.852 900.61 421.591C882.295 435.099 827.109 488.69 811.045 518.285C796.203 545.641 811.697 539.182 823.4 525.396C836.523 509.928 856.158 488.827 868.616 487.584C891.084 485.35 863.551 517.404 856.5 555.999C847 607.999 849.6 635.499 844 702.499C838.961 839.999 848.432 873.395 838 925.499C836.863 931.164 839.09 954.384 839 958.999C835.217 976.468 843.88 987.412 841 994.499C832.162 1016.23 846.73 1027.64 830 1045C817.945 1057.51 784.801 1063.27 769.292 1069.28C750.254 1076.68 729.051 1084.35 713.946 1099.31C700.094 1113.03 702.974 1133.5 720.379 1140.29C742.584 1148.94 764.218 1162.23 786.809 1171.02L914.774 1148.1C929.841 1140.65 953.782 1141.04 965.554 1125.98C976.536 1111.93 964.275 1093.2 952.168 1084.74C940.29 1076.46 929.544 1069.18 915.563 1063.91C895.885 1056.48 891 1063.91 873.5 1041C871.248 1018.67 862.614 974.576 860.5 952.999C867.049 835.999 863.451 754.999 866.5 702.499C879.451 599.499 875.5 548.499 900.61 512.999C939.425 474.036 930.088 487.129 950.501 477.499C971.178 467.742 1001.87 457.978 1005.73 430.022C1009.71 401.277 991.048 394.206 975.49 391.334Z" fill="white"/>
<path d="M900.376 421.522C920.357 406.783 949.83 386.572 975.256 391.265C990.814 394.137 1009.47 401.208 1005.5 429.953C1001.64 457.909 949.677 477.758 929 487.514C908.587 497.144 894 508.5 881 571C868 633.5 865.5 732.577 865.5 732.577C865.5 732.577 850.5 1040.09 880 1050C909.5 1059.91 895.883 1056.48 915.562 1063.91C929.542 1069.18 940.289 1076.46 952.166 1084.74C964.274 1093.2 976.535 1111.94 965.552 1125.98C953.78 1141.04 929.84 1140.65 914.774 1148.1L786.808 1171.02C764.216 1162.23 742.583 1148.94 720.377 1140.29C702.972 1133.5 700.092 1113.03 713.944 1099.31C729.049 1084.35 750.252 1076.68 769.291 1069.28C784.8 1063.27 804.498 1067 826 1050C847.502 1033 839 947.5 839 947.5C839 924 837 776.5 841 732.577C845 688.654 848 640.5 854.5 577C861 513.5 890.85 485.281 868.382 487.514C855.925 488.758 836.289 509.859 823.166 525.327C811.464 539.113 795.969 545.572 810.811 518.216C826.875 488.621 882.061 435.03 900.376 421.522Z" stroke="#D0D2D3" stroke-width="7.39467" stroke-linecap="round" stroke-linejoin="round"/>
<path d="M668.726 1095.67C668.726 1128.43 741.148 1155 830.486 1155C919.83 1155 991.283 1128.42 992.257 1095.67L1015.92 1097.49C1014.81 1140.74 932.898 1175.82 830.486 1175.82C728.075 1175.82 645.054 1140.75 645.059 1097.49" fill="#DBA100"/>
<path d="M830.483 1180.54C780.337 1180.54 733.118 1172.26 697.525 1157.23C660.65 1141.64 640.332 1120.43 640.332 1097.49C640.332 1094.88 642.447 1092.77 645.056 1092.77C647.66 1092.77 649.77 1094.88 649.77 1097.49C649.764 1116.12 668.514 1134.73 701.197 1148.53C735.65 1163.09 781.566 1171.11 830.483 1171.11C929.087 1171.11 1010.16 1138.03 1011.2 1097.36C1011.27 1094.75 1013.57 1092.64 1016.04 1092.77C1018.65 1092.84 1020.7 1095 1020.64 1097.61C1019.44 1144.12 935.915 1180.54 830.483 1180.54Z" fill="#6C6E70"/>
<path d="M830.483 1159.72C786.728 1159.72 745.54 1153.44 714.478 1142.05C681.926 1130.11 664.004 1113.64 664.004 1095.67C664.004 1093.06 666.118 1090.95 668.723 1090.95C671.327 1090.95 673.441 1093.06 673.441 1095.67C673.436 1109.19 689.577 1122.87 717.723 1133.19C747.77 1144.22 787.816 1150.28 830.483 1150.28C923.457 1150.28 986.754 1121.97 987.535 1095.52C987.608 1092.92 989.775 1090.91 992.395 1090.95C994.993 1091.02 997.046 1093.19 996.967 1095.8C995.91 1131.65 922.78 1159.72 830.483 1159.72Z" fill="#6C6E70"/>
<path d="M1422.52 676.418C1355.41 732.313 1276.34 744.872 1252.58 742.515C1228.8 740.163 1207.6 771.782 1226.09 789.257C1244.6 806.742 1316.38 817.351 1346.34 811.683C1376.31 806.016 1437.55 775.037 1468.12 747.33" fill="white"/>
<path d="M519.34 1052.12C592.793 1055.99 648.84 1093.47 662.184 1108.53C675.528 1123.59 706.736 1116.18 705.293 1094.8C703.866 1073.4 665.575 1025.77 643.814 1012.13C622.059 998.475 566.481 982.574 531.731 982.199" fill="white"/>
<path d="M519.34 1052.12C592.793 1055.99 648.84 1093.47 662.184 1108.53C675.528 1123.59 706.736 1116.18 705.293 1094.8C703.866 1073.4 665.575 1025.77 643.814 1012.13C622.059 998.475 566.481 982.574 531.731 982.199L519.34 1052.12Z" stroke="#929496" stroke-width="9.884" stroke-linecap="round" stroke-linejoin="round"/>
<path d="M665.396 1052.92C648.297 1047.3 597.755 1055.25 580.343 1056.66C564.521 1057.93 554.651 1025.5 542.619 1005.27C545.036 1001.29 547.312 997.497 549.453 993.887C590.052 1022.53 677.927 1010.79 706.411 982.955C722.651 967.096 715.708 950.038 710.896 931.778C706.083 913.518 713.224 858.325 692.255 812.096C677.849 780.315 652.255 763.69 618.385 760.19C609.047 728.57 587.875 671.726 558.76 646.221C524.807 616.481 449.859 559.351 437.255 547.908C424.656 536.466 388.135 525.153 396.031 559.627C402.531 588.023 400.432 621.929 422.922 657.955C389.661 644.127 358.052 631.32 349.453 627.059C334.208 619.481 295.984 618.679 313.01 649.846C330.041 681.007 337.083 723.559 389.666 755.117C419.364 772.945 461.63 788.596 497.062 799.986C490.484 804.887 484.599 809.533 479.734 813.382C470.505 820.705 467.182 838.46 469.937 860.747C430.146 884.846 382.244 926.591 335.536 940.346C244.781 967.059 192.338 1004.28 165.77 1036.97C140.864 1020.56 96.083 1007.62 89.2861 1027.55C80.5153 1053.3 78.359 1093.51 99.9163 1102.34C113.588 1107.94 126.198 1110.22 136.875 1110.86C136.875 1113.89 137.057 1116.89 137.39 1119.85C116.317 1188.31 250.161 1278.05 253.192 1288.53C256.442 1299.72 213.875 1337.08 204.166 1349.6C194.453 1362.11 190.39 1395.85 227.338 1393.64C243.984 1392.63 364.057 1403.28 375.672 1389C387.312 1374.72 370.203 1355.92 350.182 1349.6C335.635 1345.01 299.854 1343.81 279.276 1345.88C305.38 1329.82 352.01 1295.37 356.797 1284.35C356.953 1283.99 357.073 1283.61 357.224 1283.25C392.286 1290.28 420.213 1292.85 422.619 1297.39C428.078 1307.68 403.494 1337.68 396.536 1351.91C389.578 1366.15 394.218 1377.41 428.984 1382.05C445.51 1384.25 573.489 1396.08 581.953 1379.73C590.437 1363.37 569.698 1331.31 548.812 1329.2C527.906 1327.09 482.396 1335.57 477.557 1328.92C472.708 1322.26 507.39 1268.29 504.354 1250.12C501.323 1231.96 483.442 1203.2 468.005 1188.98C460.224 1181.81 443.468 1168.9 422.77 1157.66C437.515 1146.03 450.817 1133.19 462.119 1119.76C469.369 1111.13 476.448 1102.21 483.291 1093.18C511.979 1113.85 566.494 1130.68 579.286 1130.36C595.021 1129.97 651.578 1114 666.661 1116.28C681.744 1118.57 703.817 1109.78 711.109 1091.66C718.411 1073.55 682.505 1058.55 665.396 1052.92Z" fill="white"/>
<path d="M665.396 1052.92C648.297 1047.3 597.755 1055.25 580.343 1056.66C564.521 1057.93 554.651 1025.5 542.619 1005.27C545.036 1001.29 547.312 997.497 549.453 993.887C590.052 1022.53 677.927 1010.79 706.411 982.955C722.651 967.096 715.708 950.038 710.896 931.778C706.083 913.518 713.224 858.325 692.255 812.096C677.849 780.314 652.255 763.689 618.385 760.189C609.047 728.57 587.875 671.726 558.76 646.221C524.807 616.481 449.859 559.351 437.255 547.908C424.656 536.466 388.135 525.153 396.031 559.627C402.531 588.023 400.432 621.929 422.922 657.955C389.661 644.127 358.052 631.32 349.453 627.059C334.208 619.481 295.984 618.679 313.01 649.846C330.041 681.007 337.083 723.559 389.666 755.117C419.364 772.945 461.63 788.596 497.062 799.986C490.484 804.887 484.599 809.533 479.734 813.382C470.505 820.705 467.182 838.46 469.937 860.747C430.146 884.846 382.244 926.591 335.536 940.346C244.781 967.059 192.338 1004.28 165.77 1036.97C140.864 1020.56 96.083 1007.62 89.2861 1027.55C80.5153 1053.3 78.359 1093.51 99.9163 1102.34C113.588 1107.94 126.198 1110.22 136.875 1110.86C136.875 1113.89 137.057 1116.89 137.39 1119.85C116.317 1188.31 250.161 1278.05 253.192 1288.53C256.442 1299.72 213.875 1337.08 204.166 1349.6C194.453 1362.11 190.39 1395.85 227.338 1393.64C243.984 1392.63 364.057 1403.28 375.672 1389C387.312 1374.72 370.203 1355.92 350.182 1349.6C335.635 1345.01 299.854 1343.81 279.276 1345.88C305.38 1329.82 352.01 1295.37 356.797 1284.35C356.953 1283.99 357.073 1283.61 357.224 1283.25C392.286 1290.28 420.213 1292.85 422.619 1297.39C428.078 1307.68 403.494 1337.68 396.536 1351.91C389.578 1366.15 394.218 1377.41 428.984 1382.05C445.51 1384.25 573.489 1396.08 581.953 1379.73C590.437 1363.37 569.698 1331.31 548.812 1329.2C527.906 1327.09 482.396 1335.57 477.557 1328.92C472.708 1322.26 507.39 1268.29 504.354 1250.12C501.323 1231.96 483.442 1203.2 468.005 1188.98C460.224 1181.81 443.468 1168.9 422.771 1157.66C437.515 1146.03 450.817 1133.19 462.119 1119.76C469.369 1111.13 476.448 1102.21 483.291 1093.18C511.979 1113.85 566.494 1130.68 579.286 1130.36C595.021 1129.97 651.578 1114 666.661 1116.28C681.744 1118.57 703.817 1109.78 711.109 1091.66C718.411 1073.55 682.505 1058.55 665.396 1052.92Z" stroke="#929496" stroke-width="11.736" stroke-linecap="round" stroke-linejoin="round"/>
<path d="M322.792 1402.37C305.006 1402.37 283.079 1401.62 256.813 1400.41C243.318 1399.79 231.657 1399.25 227.693 1399.49C207.615 1400.71 198.818 1392.25 194.964 1384.95C188.464 1372.62 192.183 1355.47 199.532 1346C202.62 1342.02 208.485 1336.03 215.271 1329.09C225.495 1318.64 246.521 1297.16 247.469 1290.33C245.396 1287.73 237.469 1280.87 229.787 1274.22C187.605 1237.71 99.8342 1161.75 139.021 1102.98C140.818 1100.28 144.459 1099.55 147.157 1101.35C149.855 1103.15 150.584 1106.79 148.787 1109.49C115.339 1159.65 197.824 1231.04 237.464 1265.34C253.131 1278.9 257.699 1282.98 258.829 1286.9C261.85 1297.3 247.558 1312.88 223.657 1337.3C217.396 1343.7 211.48 1349.74 208.803 1353.19C203.928 1359.48 201.308 1371.81 205.35 1379.47C208.605 1385.65 215.891 1388.45 226.99 1387.78C231.574 1387.5 242.386 1388 257.355 1388.68C277.396 1389.61 304.85 1390.87 327.907 1390.61C364.615 1390.19 370.365 1386.09 371.146 1385.27C373.516 1382.36 374.157 1379.18 373.084 1375.58C370.673 1367.52 360.298 1358.95 348.412 1355.19C334.053 1350.66 300.277 1349.94 281.261 1351.55C273.178 1356.43 265.99 1360.12 262.646 1360.15C262.615 1360.15 262.589 1360.15 262.558 1360.15C259.886 1360.15 257.574 1358.73 256.506 1356.42C254.495 1352.06 257.943 1348.11 260.006 1345.74C261.016 1344.58 263.485 1341.75 277.391 1340.16C285.475 1335.13 296.214 1327.95 308.636 1318.92C335.49 1299.4 349.636 1286.11 351.417 1282.01C362.568 1256.32 358.516 1217.44 347.73 1202.36C345.844 1199.73 346.449 1196.06 349.084 1194.17C351.719 1192.28 355.386 1192.9 357.271 1195.53C370.344 1213.79 375.219 1256.66 362.183 1286.68C357.756 1296.87 330.131 1317.87 314.058 1329.49C311.136 1331.6 306.209 1335.12 300.495 1339.03C301.016 1339.03 301.542 1339.03 302.068 1339.03C318.62 1339.03 340.334 1340.34 351.949 1344C367.761 1349 380.771 1360.34 384.329 1372.22C386.506 1379.51 385.048 1386.78 380.225 1392.71C374.464 1399.79 355.73 1402.37 322.792 1402.37Z" fill="#929496"/>
<path d="M557.941 823.622C557.441 823.622 556.936 823.559 556.426 823.424C480.775 803.288 422.066 781.408 386.645 760.148C344.504 734.861 330.655 703.132 318.436 675.143C314.941 667.137 311.639 659.57 307.858 652.658C299.525 637.398 303.134 628.627 307.624 623.955C317.395 613.794 340.092 615.851 352.066 621.799C358.228 624.861 377.478 632.809 399.764 642.018C431.863 655.278 471.811 671.778 495.78 683.143C545.988 706.945 593.665 790.393 594.139 791.231C595.738 794.054 594.743 797.632 591.926 799.231C589.103 800.825 585.525 799.835 583.926 797.012C571.202 774.549 529.665 712.195 490.754 693.747C467.051 682.512 427.259 666.07 395.285 652.867C371.868 643.19 353.374 635.549 346.848 632.315C337.691 627.762 321.129 626.841 316.087 632.091C312.874 635.424 315.441 642.054 318.16 647.033C322.186 654.403 325.587 662.195 329.191 670.45C340.707 696.825 353.759 726.726 392.681 750.085C426.681 770.492 485.91 792.512 559.447 812.085C562.577 812.919 564.441 816.132 563.608 819.262C562.91 821.887 560.535 823.622 557.941 823.622Z" fill="#929496"/>
<path d="M601.763 871.847C595.607 877.065 595.769 899.503 605.909 907.305C616.05 915.107 631.076 915.565 636.045 906.128C639.93 898.748 639.633 885.612 631.508 875.722C624.196 866.815 609.894 864.951 601.763 871.847Z" fill="#929496"/>
<path d="M704.402 976.34C701.897 976.34 699.386 975.787 696.964 974.668C689.1 971.022 684.147 962.235 684.35 952.282C684.417 949.037 687.089 946.475 690.334 946.532C693.574 946.6 696.152 949.277 696.084 952.517C695.98 957.657 698.371 962.381 701.902 964.017C704.423 965.188 707.094 964.553 709.839 962.126C712.266 959.98 715.975 960.209 718.121 962.636C720.266 965.069 720.037 968.777 717.605 970.918C713.553 974.501 708.98 976.34 704.402 976.34Z" fill="#929496"/>
<path d="M665.516 1007.18C651.152 1007.18 632.287 1006.07 625.912 968.633C625.37 965.44 627.516 962.404 630.714 961.862C633.902 961.326 636.938 963.466 637.485 966.664C642.391 995.498 653.167 995.482 666.834 995.44C667.647 995.44 668.454 995.435 669.256 995.44C672.495 995.456 675.11 998.097 675.094 1001.34C675.079 1004.57 672.454 1007.17 669.225 1007.17H669.199C668.423 1007.17 667.647 1007.17 666.865 1007.17C666.423 1007.18 665.969 1007.18 665.516 1007.18Z" fill="#929496"/>
<path d="M1855.02 415.617C1853.11 417.694 1850.86 419.859 1848.22 422.103L1844.34 425.411C1815.57 449.96 1796.57 466.172 1729.91 477.916C1699.18 483.337 1667.02 484.146 1635.91 484.943C1597.8 485.909 1558.39 486.908 1522.24 496.504C1519.11 497.335 1515.9 495.461 1515.07 492.326C1514.23 489.206 1516.1 485.982 1519.23 485.159C1556.71 475.212 1596.82 474.194 1635.61 473.21C1666.29 472.426 1698.02 471.612 1727.87 466.362C1791.38 455.175 1808.45 440.612 1836.71 416.492L1840.61 413.166C1849.71 405.442 1854.07 398.324 1852.3 394.11C1850.28 389.346 1840.5 386.08 1830.92 386.993C1821.13 387.917 1788.63 390.097 1751 392.629C1715.93 394.982 1676.18 397.655 1651.28 399.57C1603.46 403.251 1538.65 445.112 1514.75 464.809C1512.25 466.871 1508.55 466.512 1506.49 464.011C1504.42 461.516 1504.78 457.825 1507.29 455.753C1527.03 439.478 1595.69 392.076 1650.38 387.868C1675.34 385.952 1715.11 383.286 1750.21 380.921C1786.2 378.505 1820.18 376.223 1829.81 375.306C1842.85 374.065 1858.47 378.564 1863.11 389.56C1865.5 395.21 1865.65 404.046 1855.02 415.617Z" fill="#929496"/>
<path d="M1488.57 1213.17C1487.76 1214.05 1486.87 1214.85 1485.9 1215.55C1476.85 1222.12 1463.53 1219.46 1439.33 1214.66C1436.35 1214.07 1433.19 1213.44 1429.86 1212.79C1403.99 1207.79 1370.51 1206.8 1343.6 1206C1327.4 1205.51 1313.41 1205.1 1303.16 1203.97C1291.89 1202.72 1285.13 1194.44 1285.52 1182.35C1286.18 1161.45 1306.33 1135.31 1330.35 1134.2C1351.73 1133.21 1373.49 1139.44 1390.98 1144.46C1400.1 1147.08 1412.58 1150.65 1415.42 1149.49C1426.3 1143.74 1423.16 1124.45 1419.54 1102.1C1416.16 1081.23 1412.32 1057.57 1419.35 1037.95C1425.04 1022.08 1439.66 1002.73 1457.5 987.452C1472.62 974.511 1496.8 958.481 1526.1 955.656C1529.33 955.348 1532.2 957.71 1532.5 960.946C1532.82 964.16 1530.46 967.028 1527.23 967.335C1478.88 971.998 1439.09 1017.66 1430.4 1041.91C1424.39 1058.68 1427.97 1080.74 1431.13 1100.23C1435.29 1125.92 1439.23 1150.17 1420.88 1159.89C1414.31 1163.35 1403.75 1160.33 1387.74 1155.74C1371.08 1150.97 1350.35 1145.01 1330.89 1145.93C1312.34 1146.78 1297.69 1168.84 1297.25 1182.72C1296.99 1190.48 1300.96 1191.92 1304.44 1192.31C1314.24 1193.38 1328 1193.79 1343.94 1194.27C1371.28 1195.08 1405.29 1196.08 1432.09 1201.27C1435.45 1201.92 1438.62 1202.55 1441.62 1203.15C1461.19 1207.04 1474.11 1209.6 1478.99 1206.05C1481.19 1204.46 1482.61 1200.72 1483.34 1194.64C1483.95 1189.39 1482.37 1180.83 1480.68 1171.76C1477.01 1151.97 1472.44 1127.33 1485.57 1111.34C1493.6 1101.53 1506.69 1096.65 1525.53 1096.41C1567.48 1095.86 1589.76 1084.5 1605.01 1055.9C1606.54 1053.03 1610.1 1051.95 1612.95 1053.47C1615.82 1054.99 1616.89 1058.55 1615.37 1061.41C1598.01 1094 1572.01 1107.54 1525.67 1108.14C1510.72 1108.33 1500.28 1111.91 1494.64 1118.79C1484.98 1130.56 1488.83 1151.31 1492.22 1169.62C1494.16 1180.02 1495.82 1189 1494.99 1196.03C1494.04 1203.95 1492.03 1209.41 1488.57 1213.17Z" fill="#929496"/>
<path d="M1472.46 751.288C1472.33 751.428 1472.19 751.561 1472.07 751.675C1439.45 781.227 1377.22 811.814 1347.43 817.452C1317.55 823.1 1242.9 813.211 1222.06 793.529C1212.75 784.73 1210.6 772.003 1216.31 759.472C1223.1 744.585 1238.24 735.208 1253.15 736.678C1274.11 738.754 1352.32 727.242 1418.76 671.914C1421.26 669.834 1424.95 670.175 1427.03 672.665C1429.1 675.159 1428.76 678.847 1426.27 680.929C1358.3 737.547 1278.13 750.939 1252 748.357C1240.86 747.261 1230.99 755.565 1226.99 764.341C1225.29 768.062 1222.2 777.515 1230.12 784.992C1246.74 800.689 1315.82 811.484 1345.26 805.912C1373.4 800.592 1433.8 770.511 1464.18 742.982C1466.58 740.811 1470.3 740.985 1472.47 743.394C1474.52 745.661 1474.48 749.093 1472.46 751.288Z" fill="#929496"/>
</g>
<defs>
<clipPath id="clip0_486_411">
<rect width="2134" height="1600" fill="white"/>
</clipPath>
</defs>
</svg>
